<svg width="83" height="83" viewBox="0 0 83 83" fill="none" xmlns="http://www.w3.org/2000/svg">
<path d="M41.5 0C36.0501 0 30.6536 1.07343 25.6186 3.159C20.5836 5.24457 16.0087 8.30144 12.1551 12.1551C4.37231 19.9378 0 30.4935 0 41.5C0 52.5065 4.37231 63.0622 12.1551 70.8449C16.0087 74.6986 20.5836 77.7554 25.6186 79.841C30.6536 81.9266 36.0501 83 41.5 83C52.5065 83 63.0622 78.6277 70.8449 70.8449C78.6277 63.0622 83 52.5065 83 41.5C83 36.0501 81.9266 30.6536 79.841 25.6186C77.7554 20.5836 74.6986 16.0087 70.8449 12.1551C66.9913 8.30144 62.4164 5.24457 57.3814 3.159C52.3464 1.07343 46.9499 0 41.5 0ZM16.6 20.75H66.4V29.05H16.6V20.75ZM16.6 37.35H66.4V45.65H16.6V37.35ZM16.6 53.95H66.4V62.25H16.6V53.95Z" fill="white"/>
</svg>
