<svg width="71" height="71" viewBox="0 0 71 71" fill="none" xmlns="http://www.w3.org/2000/svg">
<ellipse cx="35.5" cy="35.2227" rx="35.5" ry="35.2227" fill="#FF552E"/>
<path d="M17.9453 35.1098C17.9453 36.4204 18.4659 37.6772 19.3926 38.6039C20.3193 39.5306 21.5762 40.0512 22.8867 40.0512C24.1972 40.0512 25.4541 39.5306 26.3808 38.6039C27.3075 37.6772 27.8281 36.4204 27.8281 35.1098C27.8281 33.7993 27.3075 32.5424 26.3808 31.6157C25.4541 30.689 24.1972 30.1684 22.8867 30.1684C21.5762 30.1684 20.3193 30.689 19.3926 31.6157C18.4659 32.5424 17.9453 33.7993 17.9453 35.1098ZM37.7109 25.227C37.7109 26.5376 38.2315 27.7944 39.1582 28.7211C40.0849 29.6478 41.3417 30.1684 42.6523 30.1684C43.9628 30.1684 45.2197 29.6478 46.1464 28.7211C47.0731 27.7944 47.5937 26.5376 47.5937 25.227C47.5937 23.9165 47.0731 22.6596 46.1464 21.7329C45.2197 20.8063 43.9628 20.2856 42.6523 20.2856C41.3417 20.2856 40.0849 20.8063 39.1582 21.7329C38.2315 22.6596 37.7109 23.9165 37.7109 25.227ZM37.7109 44.9926C37.7109 46.3031 38.2315 47.56 39.1582 48.4867C40.0849 49.4134 41.3417 49.934 42.6523 49.934C43.9628 49.934 45.2197 49.4134 46.1464 48.4867C47.0731 47.56 47.5937 46.3031 47.5937 44.9926C47.5937 43.6821 47.0731 42.4252 46.1464 41.4985C45.2197 40.5718 43.9628 40.0512 42.6523 40.0512C41.3417 40.0512 40.0849 40.5718 39.1582 41.4985C38.2315 42.4252 37.7109 43.6821 37.7109 44.9926ZM27.334 32.9685L38.205 27.3683L27.334 32.9685ZM27.334 37.2511L38.205 42.8513L27.334 37.2511Z" fill="#FF552E"/>
<path d="M27.334 32.9685L38.205 27.3683M27.334 37.2511L38.205 42.8513M17.9453 35.1098C17.9453 36.4204 18.4659 37.6772 19.3926 38.6039C20.3193 39.5306 21.5762 40.0512 22.8867 40.0512C24.1972 40.0512 25.4541 39.5306 26.3808 38.6039C27.3075 37.6772 27.8281 36.4204 27.8281 35.1098C27.8281 33.7993 27.3075 32.5424 26.3808 31.6157C25.4541 30.689 24.1972 30.1684 22.8867 30.1684C21.5762 30.1684 20.3193 30.689 19.3926 31.6157C18.4659 32.5424 17.9453 33.7993 17.9453 35.1098ZM37.7109 25.227C37.7109 26.5376 38.2315 27.7944 39.1582 28.7211C40.0849 29.6478 41.3417 30.1684 42.6523 30.1684C43.9628 30.1684 45.2197 29.6478 46.1464 28.7211C47.0731 27.7944 47.5937 26.5376 47.5937 25.227C47.5937 23.9165 47.0731 22.6596 46.1464 21.7329C45.2197 20.8063 43.9628 20.2856 42.6523 20.2856C41.3417 20.2856 40.0849 20.8063 39.1582 21.7329C38.2315 22.6596 37.7109 23.9165 37.7109 25.227ZM37.7109 44.9926C37.7109 46.3031 38.2315 47.56 39.1582 48.4867C40.0849 49.4134 41.3417 49.934 42.6523 49.934C43.9628 49.934 45.2197 49.4134 46.1464 48.4867C47.0731 47.56 47.5937 46.3031 47.5937 44.9926C47.5937 43.6821 47.0731 42.4252 46.1464 41.4985C45.2197 40.5718 43.9628 40.0512 42.6523 40.0512C41.3417 40.0512 40.0849 40.5718 39.1582 41.4985C38.2315 42.4252 37.7109 43.6821 37.7109 44.9926Z" stroke="white" stroke-width="3" stroke-linecap="round" stroke-linejoin="round"/>
</svg>
