<svg width="36" height="37" viewBox="0 0 36 37" fill="none" xmlns="http://www.w3.org/2000/svg">
<path d="M16.607 32.4924C15.602 33.5865 14.3217 34.3906 12.8997 34.8209C11.4778 35.2512 9.96646 35.2918 8.5235 34.9385C7.04235 34.5882 5.67405 33.8684 4.54621 32.8464C3.41838 31.8244 2.56776 30.5334 2.07369 29.0938C1.58073 27.6926 1.47303 26.1847 1.76184 24.7277C2.05065 23.2706 2.72537 21.9178 3.71554 20.8106L9.726 14.1103M16.3332 32.8354L22.1943 26.4882M18.5563 4.19487C19.5613 3.10082 20.8416 2.29667 22.2635 1.8664C23.6854 1.43614 25.1968 1.39554 26.6397 1.74885C28.1209 2.09915 29.4892 2.81887 30.617 3.84088C31.7449 4.86289 32.5955 6.1539 33.0895 7.59348C33.5825 8.99471 33.6902 10.5026 33.4014 11.9597C33.1126 13.4167 32.4379 14.7695 31.4477 15.8768L25.5859 22.2248M18.6253 4.16024L12.6155 10.8598M11.7295 24.5036L22.9527 12.0925L23.0877 12.2146L11.8645 24.6256L11.7295 24.5036Z" stroke="white" stroke-width="3" stroke-linecap="round" stroke-linejoin="round"/>
</svg>
