<svg width="42" height="42" viewBox="0 0 42 42" fill="none" xmlns="http://www.w3.org/2000/svg">
<path d="M14.0333 18.2556L27.9667 11.0778M14.0333 23.7444L27.9667 30.9222M2 21C2 22.6797 2.66726 24.2906 3.85499 25.4783C5.04272 26.6661 6.65363 27.3333 8.33333 27.3333C10.013 27.3333 11.6239 26.6661 12.8117 25.4783C13.9994 24.2906 14.6667 22.6797 14.6667 21C14.6667 19.3203 13.9994 17.7094 12.8117 16.5217C11.6239 15.3339 10.013 14.6667 8.33333 14.6667C6.65363 14.6667 5.04272 15.3339 3.85499 16.5217C2.66726 17.7094 2 19.3203 2 21ZM27.3333 8.33333C27.3333 10.013 28.0006 11.6239 29.1883 12.8117C30.3761 13.9994 31.987 14.6667 33.6667 14.6667C35.3464 14.6667 36.9573 13.9994 38.145 12.8117C39.3327 11.6239 40 10.013 40 8.33333C40 6.65363 39.3327 5.04272 38.145 3.85499C36.9573 2.66726 35.3464 2 33.6667 2C31.987 2 30.3761 2.66726 29.1883 3.85499C28.0006 5.04272 27.3333 6.65363 27.3333 8.33333ZM27.3333 33.6667C27.3333 35.3464 28.0006 36.9573 29.1883 38.145C30.3761 39.3327 31.987 40 33.6667 40C35.3464 40 36.9573 39.3327 38.145 38.145C39.3327 36.9573 40 35.3464 40 33.6667C40 31.987 39.3327 30.3761 38.145 29.1883C36.9573 28.0006 35.3464 27.3333 33.6667 27.3333C31.987 27.3333 30.3761 28.0006 29.1883 29.1883C28.0006 30.3761 27.3333 31.987 27.3333 33.6667Z" stroke="white" stroke-width="3" stroke-linecap="round" stroke-linejoin="round"/>
</svg>
