<svg width="868" height="204" viewBox="0 0 868 204" fill="none" xmlns="http://www.w3.org/2000/svg">
<path d="M257.674 152.25C256.501 152.25 255.915 151.664 255.915 150.491V65.3663C255.915 64.1933 256.501 63.6069 257.674 63.6069H273.508C274.681 63.6069 275.268 64.1933 275.268 65.3663V86.7489C275.268 88.5533 275.223 90.3579 275.132 92.1623C275.132 93.8766 275.087 95.6359 274.997 97.4403C274.997 99.1546 274.907 100.914 274.726 102.718H275.132C276.756 100.282 278.425 97.8013 280.14 95.2749C281.944 92.7486 283.839 90.2226 285.824 87.6963L304.906 64.5543C305.357 63.9226 306.033 63.6069 306.936 63.6069H326.288C327.01 63.6069 327.506 63.8326 327.777 64.2836C328.048 64.6446 327.912 65.0956 327.371 65.6369L298.951 99.4703L330.348 150.22C330.709 150.762 330.754 151.258 330.484 151.709C330.303 152.07 329.897 152.25 329.266 152.25H309.913C308.921 152.25 308.199 151.844 307.748 151.032L285.688 114.763L275.268 126.672V150.491C275.268 151.664 274.681 152.25 273.508 152.25H257.674ZM333.046 152.25C331.783 152.25 331.331 151.619 331.692 150.356L360.382 64.9603C360.744 64.0579 361.421 63.6069 362.412 63.6069H383.118C384.113 63.6069 384.742 64.0579 385.013 64.9603L413.974 150.356C414.157 150.897 414.11 151.348 413.839 151.709C413.66 152.07 413.254 152.25 412.621 152.25H395.163C394.172 152.25 393.539 151.799 393.268 150.897L377.705 98.5229C376.805 95.4553 375.946 92.3879 375.134 89.3203C374.322 86.1626 373.51 83.0499 372.698 79.9823H372.427C371.615 83.0499 370.803 86.1626 369.991 89.3203C369.179 92.3879 368.323 95.4553 367.42 98.5229L352.127 150.762C351.856 151.754 351.227 152.25 350.232 152.25H333.046ZM353.886 135.063L357.134 119.635H387.584L391.103 135.063H353.886ZM424.331 152.25C423.157 152.25 422.571 151.664 422.571 150.491V65.3663C422.571 64.1933 423.157 63.6069 424.331 63.6069H440.435C441.427 63.6069 441.924 64.1933 441.924 65.3663V135.469H476.569C477.652 135.469 478.193 136.01 478.193 137.093V150.491C478.193 151.664 477.652 152.25 476.569 152.25H424.331ZM483.843 152.25C482.578 152.25 482.128 151.619 482.487 150.356L511.181 64.9603C511.539 64.0579 512.216 63.6069 513.211 63.6069H533.917C534.908 63.6069 535.541 64.0579 535.811 64.9603L564.773 150.356C564.952 150.897 564.908 151.348 564.637 151.709C564.455 152.07 564.049 152.25 563.419 152.25H545.961C544.967 152.25 544.337 151.799 544.067 150.897L528.503 98.5229C527.6 95.4553 526.744 92.3879 525.932 89.3203C525.12 86.1626 524.308 83.0499 523.496 79.9823H523.225C522.413 83.0499 521.601 86.1626 520.789 89.3203C519.977 92.3879 519.118 95.4553 518.218 98.5229L502.925 150.762C502.655 151.754 502.022 152.25 501.031 152.25H483.843ZM504.685 135.063L507.933 119.635H538.383L541.901 135.063H504.685ZM573.366 152.25C572.825 152.25 572.375 152.115 572.013 151.844C571.742 151.483 571.607 151.032 571.607 150.491L573.366 65.3663C573.366 64.1933 573.952 63.6069 575.126 63.6069H594.614C595.517 63.6069 596.146 64.0579 596.508 64.9603L618.432 111.786L640.086 64.9603C640.536 64.0579 641.212 63.6069 642.116 63.6069H661.468C662.551 63.6069 663.092 64.1933 663.092 65.3663L664.987 150.491C664.987 151.032 664.808 151.483 664.446 151.844C664.175 152.115 663.769 152.25 663.228 152.25H647.8C646.626 152.25 646.04 151.664 646.04 150.491L645.228 113.545C645.137 109.846 645.137 106.057 645.228 102.177C645.408 98.2073 645.59 94.3726 645.77 90.6736H645.364C643.831 94.2826 642.207 97.9816 640.492 101.771C638.776 105.56 637.017 109.214 635.214 112.733L620.598 142.371C620.236 143.093 619.559 143.454 618.568 143.454H617.891C616.988 143.454 616.358 143.093 615.996 142.371L601.245 112.462C599.53 108.944 597.818 105.335 596.102 101.636C594.387 97.8463 592.81 94.1923 591.366 90.6736H590.96C591.139 94.3726 591.274 98.1619 591.366 102.042C591.457 105.921 591.457 109.665 591.366 113.274L590.554 150.491C590.554 151.664 589.968 152.25 588.794 152.25H573.366ZM673.229 152.25C671.967 152.25 671.514 151.619 671.876 150.356L700.566 64.9603C700.928 64.0579 701.605 63.6069 702.596 63.6069H723.302C724.294 63.6069 724.926 64.0579 725.197 64.9603L754.158 150.356C754.338 150.897 754.294 151.348 754.023 151.709C753.844 152.07 753.438 152.25 752.805 152.25H735.347C734.356 152.25 733.723 151.799 733.452 150.897L717.889 98.5229C716.986 95.4553 716.13 92.3879 715.318 89.3203C714.506 86.1626 713.694 83.0499 712.882 79.9823H712.611C711.799 83.0499 710.987 86.1626 710.175 89.3203C709.363 92.3879 708.507 95.4553 707.604 98.5229L692.311 150.762C692.04 151.754 691.408 152.25 690.416 152.25H673.229ZM694.07 135.063L697.318 119.635H727.768L731.287 135.063H694.07ZM764.515 152.25C763.341 152.25 762.755 151.664 762.755 150.491V65.3663C762.755 64.1933 763.341 63.6069 764.515 63.6069H794.288C806.468 63.6069 815.309 65.9526 820.813 70.6443C826.315 75.3359 829.069 82.1476 829.069 91.0796C829.069 97.2146 827.715 102.403 825.009 106.643C822.302 110.883 818.151 113.861 812.558 115.575V115.71L833.941 150.22C834.299 150.762 834.347 151.258 834.076 151.709C833.893 152.07 833.443 152.25 832.723 152.25H814.859C813.955 152.25 813.235 151.844 812.693 151.032L793.341 118.417H782.108V150.491C782.108 151.664 781.519 152.25 780.349 152.25H764.515ZM782.108 103.26H794.017C799.431 103.26 803.399 102.312 805.927 100.418C808.451 98.5229 809.716 95.5006 809.716 91.3503C809.716 87.2903 808.542 84.4033 806.197 82.6889C803.941 80.8846 800.06 79.9823 794.559 79.9823H782.108V103.26ZM848.171 152.25C847 152.25 846.412 151.664 846.412 150.491V65.3663C846.412 64.1933 847 63.6069 848.171 63.6069H864.005C865.179 63.6069 865.764 64.1933 865.764 65.3663V150.491C865.764 151.664 865.179 152.25 864.005 152.25H848.171Z" fill="#482BEB"/>
<path d="M866.134 203H13.5342" stroke="#482BEB" stroke-width="2" stroke-linecap="round"/>
<path d="M127.145 73.6517C127.097 74.055 126.803 73.9633 126.588 73.8838C126.184 73.7346 126.127 73.8587 126.112 74.2553C126.091 74.7851 125.969 75.3139 125.859 75.8366C125.751 76.3418 125.939 76.5546 126.444 76.5783C129.148 76.7062 131.792 77.2651 134.432 77.7929C136.417 78.1898 138.414 78.5487 140.365 79.1195C143.794 80.1233 147.133 81.3163 150.209 83.1859C151.49 83.9644 152.775 84.7399 154.045 85.535C154.635 85.9044 155.149 86.4129 155.646 86.91C156.256 87.521 157.039 87.9497 157.589 88.5834C158.071 89.1386 158.56 89.7141 158.984 90.3281C159.502 91.0775 160.019 91.8286 160.534 92.5808C163.029 96.228 164.234 100.275 164.273 104.681C164.285 106.084 164.359 107.493 164.266 108.891C164.129 110.96 163.559 112.946 162.863 114.896C162.019 117.258 161.052 119.57 159.802 121.742C159.002 123.134 157.958 124.353 156.699 125.381C154.491 127.184 152.005 128.568 149.655 130.157C146.94 131.993 144.141 133.739 141.858 136.129C140.729 137.311 139.806 138.672 139.108 140.162C137.548 143.492 135.688 146.639 133.39 149.517C131.95 151.319 130.121 152.595 128.041 153.593C126.911 154.136 125.734 154.528 124.577 154.977C123.963 155.215 123.267 155.247 122.605 155.355C120.313 155.732 117.996 155.89 115.691 156.158C114.587 156.286 113.493 156.504 112.375 156.488L112.381 156.498C112.367 156.464 112.359 156.404 112.337 156.398C112.262 156.377 112.222 156.418 112.226 156.498L112.239 156.484C109.98 156.618 107.731 156.531 105.481 156.288C103.676 156.092 101.858 155.96 100.064 155.714C98.0215 155.434 95.9766 155.14 94.0122 154.34C92.3405 153.659 90.746 152.898 89.2806 151.864C88.2958 151.169 87.4692 150.293 86.7076 149.366C85.1773 147.505 83.961 145.43 82.7569 143.355C81.9754 142.008 81.3011 140.598 80.5865 139.212C79.7322 137.555 78.5034 136.21 77.1385 134.962C75.5071 133.47 73.6879 132.229 71.8758 130.987C69.7534 129.533 67.541 128.211 65.3953 126.789C62.98 125.189 61.0637 123.14 59.7817 120.503C58.7264 118.333 57.7554 116.132 57.0101 113.839C56.3148 111.699 55.9393 109.506 55.922 107.241C55.9 104.31 56.0424 101.403 56.8321 98.5638C57.2777 96.9625 57.9642 95.4519 58.8066 94.0244C59.6558 92.5852 60.5765 91.1841 61.627 89.8826C62.4481 88.8659 63.3995 87.9798 64.4291 87.1563C65.0736 86.6406 65.6531 86.0299 66.3197 85.5201C67.2873 84.7795 68.3355 84.1725 69.3826 83.5621C70.9853 82.6277 72.6184 81.7571 74.3263 81.0192C76.5969 80.0384 78.9554 79.3475 81.3488 78.7751C83.393 78.2858 85.4612 77.8974 87.5162 77.4532C87.8248 77.3865 88.1682 77.5926 88.4446 77.3236L88.4335 77.3331C90.3264 77.0563 92.213 76.6507 94.1144 76.5587C95.0232 76.5147 93.907 75.8363 94.4717 75.9026C94.3046 75.6556 94.3895 75.3725 94.3516 75.1069C94.2525 74.4163 94.0532 73.9511 93.1921 73.7231C91.563 73.2917 90.0223 72.5145 88.6074 71.6095C87.8495 71.1247 87.1265 70.4291 86.6904 69.5413C86.2512 68.6474 85.7934 67.7495 85.9311 66.7314C85.9755 66.4043 85.7024 66.0629 85.9907 65.7662C86.5577 65.8294 86.8017 65.5774 86.691 65.0188C86.6278 64.698 86.5899 64.3854 86.7587 64.0816C86.5286 64.0149 86.3551 64.3726 86.1429 64.022C86.7053 63.8563 86.6159 63.5213 86.3456 63.1529C86.0942 62.5862 86.416 62.0854 86.6109 61.6202C86.9533 60.8035 87.3115 59.9861 87.9747 59.3283C88.1814 59.1233 88.3932 59.012 88.6202 58.8828C88.7075 58.833 88.8452 58.9582 88.9021 58.811C88.9054 58.8026 88.7485 58.7495 88.6872 58.694C88.6195 58.6327 88.6916 58.5289 88.7329 58.5438C89.4975 58.8219 89.8731 58.0748 90.4378 57.8522C92.5239 57.0297 94.54 57.1745 96.5321 58.0203C98.6511 58.9203 100.287 60.4005 101.301 62.4809C101.815 63.5355 101.72 64.7085 101.713 65.8582C101.703 67.2366 101.471 68.5676 100.933 69.8255C100.47 70.9051 99.6814 71.7706 98.7564 72.4712C98.3822 72.7548 98.2928 73.062 98.3456 73.4304C98.4529 74.1812 98.6241 74.9228 98.7621 75.6695C98.8555 76.1729 99.1749 76.3151 99.6472 76.2768C101.007 76.1658 102.368 76.0802 103.727 75.9628C106.117 75.7561 108.511 75.6018 110.91 75.6479C112.81 75.6841 114.726 75.6868 116.601 75.9524C117.989 76.1489 119.392 75.9855 120.762 76.3008C121.395 76.4467 121.388 75.8898 121.486 75.5132C121.691 74.7225 121.876 73.9318 121.909 73.1016C121.922 72.7788 121.753 72.6597 121.603 72.5521C120.198 71.5466 119.287 70.2146 118.888 68.5371C118.484 66.8414 118.296 65.1061 118.659 63.4042C119.075 61.4551 120.403 60.0849 122.004 58.9863C122.535 58.6222 123.106 58.3012 123.692 58.0349C125.545 57.1931 127.47 57.1502 129.413 57.6546C130.051 57.8201 130.763 58.0779 131.23 58.405C132.252 59.122 133.106 60.095 133.574 61.357C134.174 62.9746 134.304 64.6497 134.417 66.3373C134.424 66.4337 134.321 66.5376 134.268 66.6377C134.094 66.702 133.92 66.7663 133.824 66.8018C134.064 67.0281 134.102 67.5042 133.989 67.5573C133.242 67.9078 133.615 68.2458 133.937 68.6085C133.695 69.1153 133.334 69.5951 133.105 70.0528C132.233 71.7936 130.514 72.1451 129.045 72.9273C128.44 73.2491 127.84 73.5708 127.145 73.6517L127.073 73.5759C127.065 73.6033 127.056 73.6304 127.047 73.6578C127.08 73.6557 127.112 73.6537 127.145 73.6517ZM133.422 67.1435C133.382 67.1266 133.335 67.0877 133.307 67.0985C133.279 67.1097 133.27 67.1706 133.253 67.2098C133.292 67.2271 133.34 67.266 133.368 67.2548C133.396 67.2437 133.404 67.1831 133.422 67.1435Z" fill="#482BEB"/>
<path d="M124.008 12.1763C122.405 12.1558 120.792 12.1269 119.242 12.61C118.343 12.8903 117.469 13.2584 116.599 13.6236C116.091 13.8368 115.585 13.9706 115.044 13.8464C114.792 13.7886 114.371 13.9921 114.416 13.4033C114.446 13.0218 114.125 13.5894 113.853 13.2589C113.089 12.3291 112.985 11.312 113.178 10.2519C113.489 8.54914 114.675 7.33912 115.775 6.11361C117.599 4.08016 119.917 2.78737 122.456 1.87107C125.092 0.919348 127.815 0.355147 130.619 0.256479C132.274 0.198236 133.921 -0.064821 135.585 0.0742286C136.572 0.156818 137.564 0.150927 138.522 0.496485C139.695 0.920079 140.973 0.860789 142.166 1.24182C143.677 1.72494 145.234 2.03612 146.708 2.67786C147.558 3.04828 148.511 3.2236 149.392 3.55794C150.714 4.05922 152.032 4.57311 153.336 5.12138C154.806 5.73999 156.305 6.31411 157.706 7.06697C159.783 8.18299 161.888 9.24458 163.881 10.533C165.125 11.3374 166.377 12.1372 167.587 12.9913C169.476 14.3245 171.226 15.8276 172.881 17.4496C174.297 18.8373 175.517 20.3771 176.703 21.9531C177.616 23.1681 178.532 24.3816 179.429 25.6085C180.615 27.2291 181.639 28.9546 182.513 30.7565C183.413 32.6129 184.2 34.522 184.924 36.459C185.821 38.8554 186.509 41.3073 187.087 43.794C187.706 46.4642 187.955 49.1867 188.158 51.9106C188.227 52.8397 188.018 53.7715 188.147 54.7198C188.245 55.4361 187.656 55.748 186.962 55.4364C186.104 55.0517 185.27 54.5967 184.347 54.39C182.8 54.0432 181.221 54.1697 179.663 54.2441C178.106 54.3182 176.557 54.5628 175.007 54.7581C173.004 55.0105 171.002 55.2703 169.004 55.5602C167.445 55.7866 165.885 56.1212 164.315 56.0711C162.893 56.0255 161.471 55.9561 160.038 55.6766C158.484 55.3735 156.992 54.937 155.483 54.503C153.351 53.8899 151.837 52.523 150.629 50.7593C149.959 49.7822 149.403 48.7273 148.739 47.7454C148.432 47.291 147.806 47.1875 147.454 46.7101C146.601 45.5527 145.405 45.4295 144.111 45.7699C143.717 45.8734 143.398 45.5913 143.018 45.6322C141.837 45.7591 140.646 45.7191 139.473 45.6109C137.531 45.4316 135.616 45.0817 133.768 44.3898C132.642 43.9689 131.534 43.5332 130.456 42.9989C128.673 42.1145 127.077 40.9632 125.588 39.6657C123.138 37.5322 120.876 35.2129 118.899 32.6288C118.001 31.4554 117.277 30.1753 116.631 28.8492C115.887 27.3232 115.427 25.7343 115.493 24.0161C115.519 23.3442 115.606 22.6787 115.788 22.0396C116.139 20.8052 117.659 20.7825 118.473 21.4008C118.562 21.4689 118.648 21.5609 118.748 21.5723C119.652 21.6753 120.326 22.2767 121.109 22.6422C122.667 23.3703 124.229 24.0923 125.794 24.8057C127.731 25.6886 129.66 26.5975 131.72 27.1656C133.287 27.5975 134.86 27.9052 136.516 27.8743C137.881 27.8489 139.27 27.8767 140.58 27.5909C141.753 27.335 143.071 27.2327 143.996 26.2305C144.16 26.0535 144.455 25.8939 144.76 26.0061C145.261 26.1906 145.393 25.7999 145.414 25.4914C145.511 24.0594 145.372 22.6565 144.355 21.533C142.813 19.8281 141.039 18.384 139.119 17.1243C137.071 15.7806 134.942 14.5776 132.676 13.6377C130.368 12.6806 127.989 12.0536 125.458 12.173C124.976 12.1958 124.491 12.1763 124.008 12.1763ZM143.714 26.749C143.7 26.7331 143.686 26.7051 143.671 26.7038C143.655 26.7024 143.637 26.7281 143.621 26.7419C143.636 26.7569 143.651 26.7832 143.668 26.7839C143.684 26.7845 143.701 26.7595 143.714 26.749Z" fill="#482BEB"/>
<path d="M77.0474 26.9312C77.1506 26.855 77.2521 26.8068 77.3417 26.9495C77.3942 27.72 77.9934 27.2412 78.3229 27.3787C79.4918 27.5441 80.6567 27.7918 81.8311 27.8527C83.1151 27.9192 84.418 27.9043 85.6949 27.763C88.4394 27.4593 90.9563 26.3953 93.441 25.2522C94.9564 24.5552 96.4995 23.9174 98.0058 23.2024C98.9369 22.7605 99.7776 22.0841 100.743 21.7722C101.543 21.5136 102.232 20.8839 103.18 21.0166C103.898 21.117 104.298 21.4448 104.477 22.136C104.954 23.9897 104.807 25.7977 104.147 27.5805C103.24 30.0312 101.846 32.1864 100.128 34.1348C97.9415 36.6151 95.6422 38.9824 93.0001 40.9918C90.6328 42.7924 87.9789 44.0063 85.1359 44.8295C83.2555 45.3739 81.3432 45.6977 79.3748 45.6642C77.8503 45.6381 76.3237 45.6912 74.8005 45.6378C74.0944 45.6131 73.5856 45.9129 73.1352 46.3561C72.6467 46.8372 72.2146 47.3684 71.5995 47.7135C71.3444 47.8566 71.2487 48.1675 71.1046 48.426C70.4475 49.6047 69.6886 50.7277 68.8134 51.7461C67.6745 53.072 66.3087 54.067 64.5724 54.5962C62.6506 55.1822 60.7302 55.757 58.7327 55.9319C56.4747 56.1292 54.2295 56.0618 51.9684 55.6308C50.6005 55.3699 49.1799 55.2454 47.7812 55.0746C46.4103 54.9068 45.0387 54.7464 43.6715 54.537C42.3608 54.336 41.0254 54.2913 39.6994 54.1993C38.5254 54.1178 37.3538 54.1547 36.1859 54.3245C35.2257 54.4642 34.3633 54.8919 33.5296 55.3226C33.0922 55.5482 32.7877 55.4772 32.4362 55.3371C32.0197 55.171 32.0569 54.5989 32.1359 54.4497C32.4836 53.7926 32.164 53.1535 32.1425 52.5415C32.0934 51.1448 32.2875 49.781 32.4091 48.4057C32.7192 44.8982 33.57 41.4898 34.6847 38.1792C36.0268 34.193 37.638 30.2882 39.9877 26.7607C41.5295 24.4463 43.3227 22.3108 44.9883 20.0847C46.032 18.6897 47.2859 17.5092 48.5279 16.3237C49.6996 15.2052 51.0045 14.2231 52.302 13.2404C53.6936 12.1861 55.1508 11.2235 56.6253 10.3065C58.009 9.4459 59.4368 8.63765 60.9231 7.93185C62.2138 7.31893 63.4559 6.57196 64.7835 6.05123C66.1835 5.50194 67.569 4.89863 68.9531 4.32664C71.4808 3.28222 74.0745 2.4752 76.6661 1.64432C77.6926 1.31521 78.7353 0.965543 79.7967 0.831431C81.826 0.575004 83.7954 -0.119976 85.8792 0.017924C89.8259 0.27915 93.7857 0.383054 97.5731 1.77378C101.012 3.03675 103.929 4.97133 106.038 8.00257C106.713 8.9727 107.268 10.0084 107.155 11.287C107.127 11.6072 106.815 11.8396 106.958 12.1745C106.374 12.1373 106.378 12.6618 106.178 12.9917C106.068 13.0018 105.958 13.012 105.848 13.0221C105.466 13.3737 104.827 13.0986 104.488 13.5763C104.466 13.6072 104.312 13.5642 104.23 13.5295C103.987 13.4261 103.735 13.4586 103.484 13.4619C102.941 13.4401 102.477 13.1428 101.999 12.9538C99.9106 12.1271 97.7226 12.1377 95.5488 12.1215C93.7729 12.1083 91.9882 12.1663 90.259 12.7062C88.0672 13.3906 85.9726 14.288 83.9656 15.4016C81.737 16.6385 79.6326 18.0543 77.7095 19.7277C76.8133 20.5075 75.9833 21.3587 75.3679 22.3897C74.6987 23.5101 74.6638 24.7126 74.9294 25.9501C75.039 26.1196 75.1544 26.2699 75.3101 26.4165C75.7181 26.8016 76.5013 26.4279 76.7348 27.181C76.7835 27.3384 77.0535 27.176 77.0474 26.9312Z" fill="#482BEB"/>
<path d="M50.9702 59.8099C51.5216 60.0623 52.0677 60.3276 52.6273 60.5614C52.9342 60.6896 52.9491 60.9954 52.9386 61.193C52.8723 62.4384 53.1192 63.7028 52.7853 64.9289C52.4372 66.2085 52.1394 67.5026 51.6519 68.745C51.3904 69.4115 51.2104 70.1037 50.8091 70.7158C50.7448 70.8132 50.9499 71.1268 51.2094 71.0964C53.5513 70.8233 55.582 71.8309 57.6509 72.6635C59.4769 73.3984 61.0538 74.5447 62.5205 75.8243C63.1349 76.3605 63.6127 77.0659 63.9523 77.8346C64.3641 78.7664 65.0455 79.4475 65.9038 79.979C66.3203 80.2368 66.6766 80.5995 67.1076 80.8238C67.7133 81.1395 67.4964 81.3925 67.1114 81.6622C66.5673 82.0432 66.0324 82.4437 65.4572 82.7723C64.2051 83.4868 63.003 84.2545 61.8344 85.1152C60.411 86.1644 59.2096 87.4359 58.1337 88.7574C57.1708 89.9402 56.3013 91.2824 55.766 92.7991C55.3942 93.8523 55.3289 95.0027 54.6414 95.9849C54.3843 96.3519 54.3663 96.0569 54.3217 96.0116C53.8599 95.5457 53.4258 95.0521 52.9612 94.5892C51.6167 93.2494 49.991 92.2933 48.4036 91.2871C45.8295 89.6553 43.1408 88.1934 40.9338 86.0321C38.9329 84.0725 36.9902 82.0672 35.7715 79.506C34.899 77.6722 34.4595 75.694 34.0454 73.7127C33.5805 71.4872 33.1732 69.2511 32.9486 66.9907C32.8856 66.357 32.4488 65.6898 32.9355 65.0422C32.2911 64.2401 32.6335 63.2464 32.4228 62.3579C32.3328 61.978 32.3452 61.5696 32.3433 61.1741C32.3381 60.0336 32.3458 59.9994 33.4321 59.7423C35.3128 59.297 37.1303 58.6061 39.0818 58.4302C40.7224 58.2823 42.3606 58.1964 44.0045 58.2238C45.0209 58.2411 46.0471 58.2015 47.0414 58.4708C48.3376 58.8223 49.6402 59.1563 50.8744 59.7013C50.822 59.724 50.734 59.7389 50.7919 59.8157C50.8125 59.8431 50.9086 59.8136 50.9702 59.8099Z" fill="#482BEB"/>
<path d="M181.449 58.4597C182.38 58.725 183.363 58.702 184.292 59.0237C185.332 59.384 186.404 59.6557 187.468 59.9447C187.88 60.0567 187.906 60.3361 187.914 60.6846C187.944 62.1073 187.752 63.5148 187.594 64.9205C187.385 66.7885 187.131 68.654 186.822 70.5081C186.34 73.3904 185.851 76.2906 184.746 79.005C183.967 80.9186 182.681 82.5694 181.267 84.0837C179.773 85.6837 178.219 87.2258 176.374 88.4344C175.204 89.201 174.055 90.0059 172.847 90.7063C170.305 92.1787 167.845 93.7445 165.929 96.0262C165.872 96.0949 165.79 96.1433 165.67 96.2414C165.297 95.6179 165.055 94.9598 164.907 94.3007C164.6 92.9251 164.04 91.6807 163.306 90.486C161.872 88.1498 159.974 86.2122 157.837 84.5713C156.755 83.7407 155.552 82.9672 154.279 82.3762C153.764 82.137 153.373 81.7255 152.921 81.3984C152.6 81.1666 152.893 81.0161 153.02 80.9169C153.478 80.5617 153.944 80.2115 154.439 79.9124C155.201 79.4516 155.809 78.8592 156.187 78.0502C157.066 76.1644 158.599 74.9135 160.327 73.8935C162.527 72.5953 164.827 71.5092 167.389 71.1293C168.051 71.0312 168.727 71.0291 169.459 70.9787C168.663 69.0377 167.904 67.1112 167.514 65.0806C167.241 63.6531 167.098 62.2061 167.464 60.7438C167.523 60.5066 167.792 60.618 167.727 60.4129C169.246 59.9616 170.598 59.0735 172.156 58.7236C173.623 58.3937 175.093 58.1884 176.614 58.2418C177.602 58.2767 178.596 58.276 179.587 58.2977C180.221 58.3115 180.832 58.4773 181.462 58.4702L181.449 58.4597Z" fill="#482BEB"/>
<path d="M186.504 113.322C183.674 113.51 180.391 113.456 177.11 113.512C173.927 113.567 170.742 113.5 167.557 113.487C167.417 113.486 167.267 113.451 167.14 113.49C166.862 113.575 166.547 113.909 166.318 113.625C166.134 113.398 166.451 113.073 166.532 112.788C167.259 110.222 167.617 107.614 167.403 104.948C167.362 104.432 167.543 104.193 168.014 104.166C169.452 104.084 170.884 103.925 172.326 103.854C174.302 103.756 176.276 103.736 178.246 103.824C180.226 103.911 182.225 103.885 184.17 104.42C184.745 104.578 185.35 104.639 185.924 104.828C186.288 104.948 186.598 104.82 186.897 104.598C189.305 102.819 191.94 101.48 194.801 100.605C196.215 100.173 197.675 100.102 199.126 100.401C199.447 100.467 199.776 100.468 200.107 100.585C201.047 100.916 201.3 101.406 201.015 102.37C200.739 103.304 200.211 104.069 199.574 104.758C197.986 106.472 196.387 108.178 194.744 109.839C194.067 110.524 193.292 111.121 192.511 111.689C192.171 111.937 192.151 112.522 191.66 112.527C191.09 112.532 190.662 112.909 190.098 112.977C189.05 113.104 188.011 113.296 186.504 113.322Z" fill="#482BEB"/>
<path d="M52.8379 106.616C52.7912 108.834 53.1827 110.988 53.8269 113.103C53.8813 113.281 54.1199 113.482 53.8905 113.663C53.7379 113.784 53.5413 113.669 53.3593 113.613C52.5669 113.369 51.7414 113.452 50.9341 113.445C48.6084 113.427 46.2827 113.486 43.9567 113.489C41.5619 113.491 39.1655 113.517 36.7732 113.432C34.5899 113.354 32.3888 113.444 30.231 113.003C29.575 112.869 28.8523 112.741 28.3296 112.371C27.8675 112.044 27.5041 111.53 27.0485 111.131C24.5073 108.905 22.1311 106.515 19.9871 103.897C19.4909 103.291 19.298 102.584 19.1468 101.876C18.9843 101.116 19.4849 100.729 20.2786 100.565C21.1891 100.377 22.0875 100.2 23.0196 100.226C24.7473 100.275 26.3341 100.876 27.9105 101.495C29.858 102.26 31.6096 103.384 33.3095 104.583C33.7286 104.878 34.1068 104.885 34.5537 104.765C36.8287 104.153 39.1503 103.891 41.5014 103.851C44.3295 103.803 47.1563 103.66 49.98 104.009C50.7572 104.106 51.5539 103.995 52.3368 104.178C52.7476 104.274 52.8633 104.468 52.845 104.86C52.818 105.444 52.8379 106.031 52.8379 106.616Z" fill="#482BEB"/>
<path d="M76.471 156.866C74.4647 156.866 72.4168 156.895 70.3705 156.851C69.5907 156.835 68.8027 156.897 68.0401 156.838C66.6624 156.73 65.3003 156.973 63.9344 156.877C62.9367 156.807 61.9569 156.905 61.0011 157.145C59.4119 157.544 57.8502 158.016 56.3747 158.772C55.1682 159.391 53.8947 159.898 52.5312 160.069C51.6228 160.183 50.5834 159.518 50.2448 158.667C50.1521 158.434 50.0516 158.171 50.1802 157.933C50.5608 157.225 50.6657 156.433 50.8951 155.68C51.1518 154.836 51.8245 154.329 52.4717 153.897C53.8142 153.001 55.2193 152.186 56.6521 151.44C58.1543 150.658 59.6988 149.956 61.2545 149.276C62.8484 148.578 64.4348 147.863 66.0561 147.233C67.5279 146.661 69.0142 146.124 70.5086 145.614C71.0442 145.431 71.618 145.341 72.1823 145.269C72.6939 145.205 73.175 145.097 73.5901 144.782C73.9917 144.477 74.5202 144.603 74.8257 144.734C75.9463 145.214 77.1693 145.358 78.2655 145.925C79.5451 146.585 80.5963 147.481 81.5173 148.561C82.1635 149.319 82.5722 150.22 83.058 151.076C83.3534 151.597 83.8034 151.988 84.275 152.343C84.929 152.834 85.019 153.284 84.451 153.868C83.8024 154.535 83.0178 155.004 82.1628 155.403C80.9871 155.952 79.7407 156.221 78.5068 156.549C77.8578 156.721 77.1632 156.595 76.471 156.866ZM71.4586 156.722C71.4752 156.741 71.4908 156.758 71.506 156.776C71.5229 156.759 71.5395 156.743 71.5564 156.727C71.5314 156.711 71.506 156.695 71.4809 156.679C71.4725 156.695 71.4644 156.711 71.4586 156.722Z" fill="#482BEB"/>
<path d="M149.395 145.542C151.195 146.115 152.966 146.765 154.722 147.466C156.843 148.313 158.945 149.199 161.009 150.174C162.138 150.707 163.287 151.219 164.347 151.872C165.679 152.691 167.145 153.29 168.345 154.337C168.782 154.718 169.125 155.123 169.309 155.65C169.58 156.426 169.8 157.218 170.084 157.992C170.248 158.439 169.969 158.844 169.655 159.18C168.885 160.004 167.571 160.266 166.479 159.827C164.321 158.959 162.193 157.999 159.988 157.276C158.786 156.882 157.463 156.799 156.162 156.852C155.5 156.879 154.835 156.804 154.172 156.804C153.399 156.805 152.621 156.789 151.856 156.812C150.903 156.841 149.948 156.779 148.992 156.847C148.063 156.912 147.123 156.868 146.19 156.823C145.323 156.782 144.455 156.858 143.587 156.698C143.133 156.613 142.668 156.743 142.173 156.64C141.045 156.405 139.967 156.069 138.878 155.697C137.816 155.335 136.918 154.777 136.067 154.099C135.215 153.42 135.179 152.847 136.071 152.235C136.927 151.647 137.385 150.802 137.856 149.953C139.077 147.754 140.804 146.179 143.246 145.45C144.213 145.162 145.143 144.732 146.175 144.687C146.265 144.683 146.405 144.596 146.436 144.629C147.247 145.486 148.419 145.147 149.372 145.52C149.312 145.543 149.252 145.566 149.192 145.589C149.219 145.611 149.244 145.649 149.273 145.653C149.349 145.663 149.398 145.627 149.395 145.542Z" fill="#482BEB"/>
<path d="M155.249 131.547C156.815 131.78 158.245 132.034 159.685 132.201C162.69 132.549 165.709 132.696 168.733 132.652C171.094 132.618 173.44 132.973 175.799 132.872C177.273 132.81 178.593 133.221 179.785 134.06C179.933 134.165 180.066 134.154 180.208 134.198C181.499 134.597 181.963 135.934 181.228 137.105C180.241 138.676 178.983 139.875 177.269 140.726C176.183 141.265 175.11 141.321 174.003 141.482C171.344 141.868 168.669 141.713 166.002 141.669C163.8 141.633 161.589 141.525 159.419 141.116C158.162 140.879 156.903 140.653 155.643 140.441C153.929 140.152 152.197 140.136 150.465 140.162C148.841 140.186 147.218 140.209 145.594 140.232C144.916 140.242 144.237 140.253 143.558 140.259C143.355 140.261 143.084 140.37 142.98 140.147C142.886 139.945 143.104 139.765 143.227 139.605C143.879 138.761 144.7 138.072 145.582 137.519C147.274 136.459 148.754 135.118 150.412 134.026C151.439 133.351 152.307 132.424 153.475 131.983C154.077 131.756 154.731 131.67 155.249 131.547Z" fill="#482BEB"/>
<path d="M77.356 140.305C75.4725 140.05 73.702 140.322 71.9207 140.217C70.77 140.149 69.5777 140.244 68.422 140.231C66.9191 140.214 65.4538 140.333 63.9847 140.563C62.4785 140.798 60.9776 141.066 59.4727 141.308C58.475 141.468 57.4772 141.522 56.4589 141.523C55.4097 141.524 54.3477 141.666 53.291 141.656C51.5578 141.64 49.8268 141.729 48.0898 141.661C46.7406 141.608 45.4268 141.343 44.0897 141.249C43.5135 141.208 43.1059 140.764 42.639 140.506C42.1832 140.254 41.6984 139.991 41.2592 139.66C40.4364 139.041 39.8352 138.313 39.3101 137.443C38.9596 136.863 38.5959 136.338 38.7068 135.637C38.8006 135.043 39.0516 134.58 39.6762 134.332C40.3589 134.06 40.9987 133.674 41.6608 133.356C42.4823 132.961 43.4242 132.858 44.3323 132.89C46.0443 132.948 47.7397 132.706 49.4398 132.685C51.4258 132.66 53.4105 132.63 55.3961 132.569C58.3251 132.48 61.231 132.212 64.1092 131.646C65.1496 131.441 66.1639 131.717 67.05 132.191C68.6666 133.055 70.1502 134.146 71.5529 135.327C72.9012 136.461 74.5025 137.236 75.8119 138.417C76.3796 138.929 77.0204 139.378 77.356 140.305Z" fill="#482BEB"/>
<path d="M39.9092 131.677C38.705 132.241 38.2906 133.449 37.5682 134.399C36.8561 135.335 36.8476 136.437 36.9792 137.508C37.0621 138.182 37.6478 138.686 38.1157 139.146C38.9916 140.007 39.9708 140.764 41.0284 141.668C39.6436 141.056 38.5366 141.849 37.3592 142.044C35.6458 142.328 33.944 142.738 32.2717 143.187C31.4818 143.399 30.6644 143.75 29.8649 144.022C28.5353 144.475 27.2321 144.982 25.9438 145.532C25.1157 145.886 24.3042 146.278 23.4832 146.649C22.4364 147.121 21.3899 147.594 20.3391 148.057C18.9238 148.681 17.4508 149.199 16.102 149.942C14.7002 150.714 13.3254 151.544 11.9322 152.338C11.5151 152.575 11.0584 152.615 10.6281 152.726C10.0198 152.885 9.53151 153.352 8.88749 153.354C8.75162 153.355 8.61666 153.569 8.43744 153.319C8.27088 153.087 8.36524 152.95 8.45324 152.776C9.08589 151.524 9.90303 150.381 10.5984 149.168C11.4791 147.632 12.8242 146.57 14.1359 145.461C14.8477 144.859 15.5574 144.254 16.2615 143.643C17.7639 142.34 19.4879 141.372 21.1928 140.375C22.419 139.658 23.6341 138.919 24.8871 138.252C26.3512 137.472 27.7019 136.504 29.1569 135.721C30.1884 135.167 31.2922 134.719 32.3433 134.205C34.1122 133.34 35.9561 132.708 37.7926 132.042C38.4547 131.802 39.1415 131.591 39.9092 131.677Z" fill="#482BEB"/>
<path d="M179.296 141.555C180.071 141.116 180.569 140.371 181.298 139.903C182.109 139.383 182.723 138.614 183.136 137.819C183.579 136.97 183.456 135.859 182.987 135.032C182.286 133.795 181.731 132.379 180.244 131.721C180.769 131.579 180.774 131.561 181.667 131.815C184.281 132.559 186.771 133.624 189.226 134.775C191.205 135.704 192.978 136.999 194.897 138.017C196.47 138.852 197.93 139.865 199.506 140.683C202.144 142.052 204.311 144.049 206.61 145.893C208.78 147.634 210.08 149.915 211.466 152.189C211.58 152.376 211.758 152.583 211.605 152.836C211.437 153.113 211.146 153.084 210.91 153.028C209.557 152.708 208.235 152.384 207.012 151.605C205.822 150.848 204.53 150.219 203.272 149.557C202.603 149.205 201.865 148.998 201.223 148.557C200.953 148.371 200.437 148.371 200.13 148.146C199.445 147.641 198.586 147.59 197.864 147.154C197.044 146.657 196.082 146.402 195.222 145.963C193.688 145.18 192.063 144.612 190.462 144.012C188.055 143.108 185.546 142.525 182.986 142.174C182.239 142.072 181.528 141.744 180.788 141.552C180.259 141.415 179.807 141.491 179.296 141.555ZM211.199 152.586C211.183 152.599 211.167 152.612 211.151 152.625C211.166 152.639 211.18 152.664 211.195 152.665C211.211 152.666 211.227 152.642 211.243 152.629C211.229 152.614 211.215 152.599 211.199 152.586ZM182.644 141.978C182.66 141.964 182.677 141.951 182.692 141.937C182.678 141.922 182.663 141.908 182.648 141.893C182.632 141.914 182.615 141.934 182.599 141.955C182.614 141.963 182.629 141.97 182.644 141.978Z" fill="#482BEB"/>
<path d="M36.2583 124.215C36.0922 122.976 37.0436 122.417 37.8509 121.981C40.4594 120.574 43.2469 119.642 46.1668 119.051C47.6632 118.748 49.1444 118.393 50.6663 118.239C52.0033 118.103 53.3398 118.1 54.6779 118.227C54.8832 118.247 54.9509 118.349 54.9946 118.524C55.7335 121.495 57.7696 123.584 59.7705 125.737C61.0984 127.166 62.8249 128.01 64.2828 129.231C64.4432 129.366 64.6452 129.451 64.8059 129.584C64.9507 129.705 65.2839 129.734 65.1652 130.006C65.0789 130.204 64.8671 130.361 64.5941 130.345C63.8267 130.299 63.0591 130.243 62.2907 130.225C60.5632 130.182 58.8319 130.181 57.1217 129.898C55.7318 129.668 54.3521 129.379 52.9635 129.144C50.9471 128.801 48.9194 128.571 46.8729 128.474C44.7295 128.373 42.5662 128.467 40.4499 128.046C38.7681 127.711 37.3484 126.925 36.4674 125.355C36.2577 124.981 36.2688 124.606 36.2583 124.215Z" fill="#482BEB"/>
<path d="M176.393 128.346C175.153 128.425 173.909 128.506 172.675 128.532C170.34 128.581 168.036 128.889 165.787 129.387C162.945 130.016 160.098 130.223 157.213 130.231C156.708 130.233 156.22 130.437 155.702 130.362C155.461 130.327 155.21 130.302 155.125 130.055C155.022 129.755 155.31 129.67 155.493 129.537C156.309 128.947 157.087 128.295 157.945 127.775C160.214 126.4 161.794 124.346 163.422 122.338C164.243 121.327 164.82 120.165 165.117 118.899C165.254 118.314 165.675 118.091 166.078 118.167C166.958 118.334 167.812 118.103 168.683 118.164C170.316 118.278 171.915 118.509 173.505 118.908C175.118 119.313 176.726 119.727 178.325 120.183C179.585 120.541 180.694 121.221 181.889 121.712C182.393 121.919 182.803 122.244 183.225 122.576C184.551 123.62 184.042 125.287 183.13 126.266C181.391 128.131 179.091 128.179 176.814 128.346C176.674 128.356 176.534 128.347 176.393 128.346Z" fill="#482BEB"/>
<path d="M42.7243 119.51C41.5364 119.789 40.3895 120.167 39.254 120.635C38.1818 121.078 37.2291 121.693 36.2615 122.288C35.2512 122.91 34.1831 123.489 34.2528 125.015C34.2981 126.009 34.8401 126.592 35.4471 127.204C35.6095 127.367 35.8328 127.477 35.9688 127.656C36.071 127.791 36.3958 127.879 36.1847 128.143C36.0351 128.33 35.7912 128.466 35.575 128.429C33.705 128.107 31.8252 128.195 29.9731 128.449C28.8685 128.6 27.7564 128.815 26.658 129.094C25.3673 129.422 24.0985 129.83 22.8013 130.131C21.9948 130.319 21.1783 130.488 20.3976 130.756C19.0687 131.212 17.7369 131.133 16.5778 130.471C15.7741 130.012 14.9277 129.473 14.3757 128.638C13.6898 127.601 14.0657 126.141 15.2988 125.333C16.1093 124.803 16.9443 124.302 17.8029 123.855C19.2404 123.105 20.6726 122.33 22.1662 121.707C24.6466 120.673 27.1455 119.664 29.766 119.027C30.4471 118.862 31.1436 118.637 31.8935 118.91C32.2077 119.025 32.6276 118.868 32.9961 118.812C34.9098 118.523 36.8268 118.897 38.7435 118.772C40.021 118.688 41.3016 118.567 42.5859 118.653C42.8177 118.668 43.0498 118.682 43.2795 118.713C43.3567 118.724 43.5167 118.711 43.4155 118.89C43.3888 118.937 43.6229 119.034 43.3421 119.067C43.1188 119.093 42.9229 119.355 42.7148 119.512L42.7243 119.51Z" fill="#482BEB"/>
<path d="M190.387 128.442C189.606 128.375 188.829 128.161 188.046 128.247C187.122 128.349 186.192 128.117 185.274 128.343C185.118 128.381 184.949 128.373 184.785 128.372C184.473 128.369 184.133 128.265 184.036 127.996C183.944 127.74 184.271 127.571 184.477 127.436C184.874 127.173 185.197 126.848 185.476 126.462C186.288 125.337 186.161 123.925 185.108 123.026C184.134 122.194 182.96 121.669 181.841 121.077C181.464 120.877 181.178 120.516 180.729 120.441C180.622 120.423 181.015 120.209 180.735 120.242C179.641 120.368 178.784 119.621 177.764 119.499C177.315 119.445 176.945 119.225 176.603 118.854C177.568 118.531 178.526 118.601 179.453 118.652C181.44 118.761 183.421 118.835 185.409 118.702C186.205 118.649 187 118.759 187.784 118.899C188.473 119.022 189.138 118.708 189.857 118.904C191.549 119.365 193.242 119.786 194.877 120.455C196.222 121.005 197.591 121.503 198.903 122.132C200.163 122.736 201.444 123.276 202.649 124.024C203.417 124.5 204.232 124.962 205.031 125.419C206.455 126.233 206.583 128.32 205.261 129.236C204.502 129.762 203.861 130.455 202.952 130.762C201.836 131.139 200.738 131.018 199.63 130.714C196.972 129.984 194.338 129.16 191.614 128.69C191.232 128.624 190.847 128.575 190.464 128.518C190.496 128.489 190.554 128.436 190.554 128.436C190.499 128.361 190.441 128.383 190.387 128.442Z" fill="#482BEB"/>
<path d="M201.051 105.582C201.673 104.732 202.298 103.884 202.917 103.032C203.687 101.971 203.781 100.773 203.359 99.6026C202.955 98.481 201.952 97.896 200.779 98.007C199.88 98.0923 198.962 98.073 198.083 98.3552C197.897 98.4147 197.568 98.6035 197.486 98.3596C197.374 98.0287 197.379 97.6115 197.707 97.3446C197.938 97.1564 198.198 96.9883 198.47 96.8672C199.881 96.2392 200.884 95.0148 202.332 94.3916C204.282 93.5525 206.306 93.1817 208.37 92.9631C211.572 92.6241 214.731 92.911 217.831 93.812C218.58 94.0299 219.273 94.3652 219.889 94.8189C220.33 95.143 220.284 95.706 220.207 96.1824C220.115 96.7569 219.734 97.1409 219.151 97.2654C217.618 97.5932 216.081 97.9021 214.547 98.2273C210.678 99.0474 207.259 100.711 204.408 103.512C203.467 104.435 202.276 105.054 201.051 105.582Z" fill="#482BEB"/>
<path d="M19.0678 105.525C18.9149 105.619 18.7887 105.537 18.674 105.462C17.7993 104.89 16.7975 104.443 16.0777 103.717C12.6949 100.304 8.50722 98.6356 3.88237 97.8304C2.96084 97.67 2.04417 97.4772 1.13165 97.2708C0.506759 97.1297 0.130269 96.7132 0.0264226 96.0782C-0.0816618 95.4171 0.13942 94.9434 0.734498 94.5584C1.97348 93.7565 3.38543 93.5187 4.77673 93.2632C9.06977 92.4746 13.3061 92.7185 17.441 94.1801C18.3458 94.4998 19.1827 94.9803 19.9135 95.6025C20.5713 96.1624 21.2828 96.6239 22.0367 97.0357C22.2493 97.1514 22.5192 97.3053 22.5901 97.5036C22.6907 97.7847 23.0076 98.1342 22.7953 98.3748C22.573 98.6272 22.1863 98.3893 21.8808 98.3085C20.7003 97.9969 19.4908 97.872 18.3112 98.1593C17.5822 98.3369 16.9608 98.9496 16.8135 99.6628C16.6403 100.502 16.5146 101.409 16.9197 102.275C17.4132 103.33 18.1996 104.175 18.8525 105.116C18.9397 105.242 19.0863 105.342 19.0678 105.525Z" fill="#482BEB"/>
<path d="M167.461 161.167C168.082 160.666 168.804 160.986 169.458 160.786C170.837 160.366 171.426 159.48 171.022 158.106C170.696 156.997 170.339 155.899 169.614 154.964C169.408 154.699 169.23 154.396 169.418 153.984C170.479 154.736 171.54 155.527 172.639 156.26C174.535 157.525 176.233 159.038 177.945 160.523C181.264 163.399 183.452 166.985 184.414 171.298C184.538 171.854 184.249 172.171 183.885 172.395C183.492 172.636 183.037 172.6 182.66 172.253C181.937 171.586 181.2 170.934 180.484 170.259C178.667 168.545 176.578 167.199 174.523 165.804C173.186 164.897 172.047 163.731 170.659 162.882C169.628 162.252 168.521 161.77 167.461 161.167Z" fill="#482BEB"/>
<path d="M50.9713 154.087C50.2432 155.635 49.2745 157.049 49.1078 158.761C48.9958 159.913 49.6197 160.579 50.7649 160.736C51.4172 160.826 52.0611 160.976 52.8416 161.124C51.8205 161.669 50.9371 162.142 50.0517 162.612C48.2995 163.542 46.962 165.041 45.2991 166.089C42.5326 167.833 40.0211 169.89 37.689 172.173C37.2888 172.565 36.787 172.65 36.3539 172.41C35.8921 172.153 35.7209 171.709 35.861 171.096C36.6902 167.462 38.4861 164.352 41.0365 161.691C42.1618 160.516 43.5033 159.551 44.7277 158.469C46.4217 156.972 48.359 155.807 50.1498 154.443C50.3711 154.275 50.5825 154.082 50.9713 154.087Z" fill="#482BEB"/>
<path d="M203.412 131.899C204.839 131.479 205.944 130.723 206.794 129.579C207.274 128.934 207.389 128.24 207.214 127.489C206.99 126.525 206.24 125.874 205.71 125.095C205.385 124.618 204.965 124.206 204.508 123.671C205.349 123.739 205.849 124.27 206.417 124.603C207.166 125.043 207.847 125.608 208.522 126.164C209.641 127.086 210.742 128.031 211.832 128.988C213.256 130.238 214.06 131.893 214.77 133.599C215.329 134.943 215.728 136.336 215.972 137.771C216.008 137.977 216.016 138.19 216.02 138.4C216.024 138.677 216.05 139.022 215.795 139.158C215.526 139.301 215.273 139.073 215.052 138.888C212.274 136.553 209.106 134.832 205.939 133.112C205.145 132.681 204.366 132.212 203.412 131.899Z" fill="#482BEB"/>
<path d="M16.7755 131.923C15.1089 132.644 13.5994 133.433 12.1227 134.291C9.63359 135.737 7.13483 137.166 4.94977 139.07C4.60034 139.374 4.28143 139.2 4.22029 138.684C4.16755 138.24 4.23755 137.798 4.33062 137.362C4.89138 134.73 5.78823 132.237 7.41085 130.057C8.21334 128.979 9.33231 128.228 10.3271 127.35C11.5867 126.238 12.836 125.11 14.3056 124.272C14.5475 124.134 14.8626 123.761 15.0744 124.019C15.2513 124.235 14.9102 124.618 14.7261 124.834C14.0281 125.653 13.4303 126.519 13.0245 127.522C12.7445 128.214 12.9716 128.844 13.3127 129.389C14.1109 130.662 15.3321 131.427 16.7755 131.923Z" fill="#482BEB"/>
<path d="M106.171 12.9915C106.371 12.6616 106.367 12.1371 106.951 12.1742C106.982 13.0231 106.378 13.4365 105.74 13.6838C104.992 13.9739 104.173 14.116 103.478 13.4617C103.728 13.4583 103.98 13.4259 104.223 13.5293C104.305 13.5639 104.459 13.607 104.481 13.5761C104.819 13.0984 105.459 13.3735 105.841 13.0219C105.873 13.2824 106.071 13.182 106.189 13.1522C106.35 13.1115 106.216 13.0433 106.171 12.9915Z" fill="#482BEB"/>
<path d="M86.3343 63.1533C86.6047 63.5218 86.694 63.8567 86.1317 64.0225C86.3438 64.373 86.5174 64.0154 86.7474 64.082C86.5786 64.3859 86.6162 64.6985 86.6798 65.0192C86.7901 65.5778 86.5465 65.8299 85.9794 65.7666C85.699 65.5985 85.7724 65.4134 85.9541 65.2236C86.0698 65.1897 86.2714 65.2561 86.2636 65.0683C86.2562 64.8869 86.0616 64.9556 85.9419 64.933C86.0762 64.3405 85.6807 63.6314 86.3343 63.1533Z" fill="#482BEB"/>
<path d="M77.0535 26.9302C77.0596 27.175 76.7896 27.3374 76.7409 27.1801C76.5078 26.427 75.7245 26.8007 75.3162 26.4155C75.1605 26.2689 75.0455 26.1187 74.9355 25.9491C75.8842 25.7529 76.52 26.2312 77.0535 26.9302Z" fill="#482BEB"/>
<path d="M133.93 68.609C133.608 68.2463 133.235 67.9079 133.982 67.5574C134.095 67.5043 134.057 67.0283 133.817 66.8019C133.914 66.7664 134.088 66.7025 134.262 66.6382C134.424 67.3409 134.334 68.0013 133.93 68.609Z" fill="#482BEB"/>
<path d="M78.3347 27.3779C78.0051 27.2404 77.406 27.7192 77.3535 26.9487C77.7297 26.9793 78.0616 27.1118 78.3347 27.3779Z" fill="#482BEB"/>
<path d="M85.9443 64.9321C86.0644 64.9548 86.259 64.8861 86.2664 65.0675C86.2742 65.2552 86.0726 65.1893 85.9569 65.2231C85.9528 65.126 85.9487 65.0292 85.9443 64.9321Z" fill="#482BEB"/>
<path d="M42.7148 119.509C42.7454 119.522 42.7756 119.534 42.8062 119.547C42.7991 119.534 42.7944 119.514 42.784 119.51C42.7662 119.503 42.7444 119.507 42.7242 119.507L42.7148 119.509Z" fill="#482BEB"/>
<path d="M88.447 77.3223C88.447 77.3223 88.4375 77.3304 88.4317 77.3353L88.447 77.3223Z" fill="#482BEB"/>
<path d="M181.451 58.4658C181.459 58.4339 181.466 58.402 181.474 58.3701C181.579 58.4474 181.479 58.4393 181.438 58.4561L181.451 58.4658Z" fill="#482BEB"/>
<path d="M112.369 156.487C112.325 156.461 112.276 156.651 112.236 156.483L112.225 156.496C112.275 156.497 112.324 156.497 112.374 156.497L112.369 156.487Z" fill="#482BEB"/>
<path d="M133.409 67.1411C133.392 67.179 133.384 67.2379 133.356 67.2487C133.329 67.2595 133.283 67.2216 133.245 67.2051C133.262 67.1672 133.27 67.108 133.297 67.0971C133.325 67.0863 133.371 67.1242 133.409 67.1411Z" fill="#482BEB"/>
<path d="M127.138 73.6495C127.106 73.6516 127.075 73.6532 127.044 73.6553C127.052 73.6291 127.061 73.6029 127.069 73.5767L127.138 73.6495Z" fill="#482BEB"/>
<path d="M112.374 156.493C112.325 156.492 112.275 156.492 112.225 156.492C112.221 156.415 112.259 156.374 112.333 156.395C112.354 156.401 112.361 156.459 112.374 156.493Z" fill="#482BEB"/>
<path d="M143.695 26.7472C143.683 26.7572 143.667 26.7813 143.651 26.7807C143.635 26.7801 143.621 26.7548 143.605 26.7403C143.622 26.727 143.639 26.7024 143.654 26.7037C143.669 26.705 143.682 26.7319 143.695 26.7472Z" fill="#482BEB"/>
<path d="M106.175 12.9927C106.221 13.0445 106.355 13.1126 106.194 13.1534C106.076 13.1833 105.878 13.2836 105.846 13.0231C105.955 13.013 106.065 13.0028 106.175 12.9927Z" fill="#482BEB"/>
<path d="M50.9629 59.8086C50.9013 59.812 50.8052 59.8415 50.7846 59.8144C50.7268 59.7373 50.8147 59.7224 50.8672 59.6997C50.8993 59.7359 50.9311 59.7721 50.9629 59.8086Z" fill="#482BEB"/>
<path d="M71.4521 156.723C71.4575 156.713 71.4656 156.697 71.4736 156.682C71.4978 156.697 71.522 156.713 71.5462 156.728C71.5301 156.743 71.5139 156.759 71.4978 156.774C71.483 156.758 71.4683 156.741 71.4521 156.723Z" fill="#482BEB"/>
<path d="M149.383 145.541C149.387 145.626 149.338 145.662 149.262 145.652C149.232 145.648 149.207 145.61 149.181 145.588C149.241 145.565 149.301 145.543 149.361 145.52L149.383 145.541Z" fill="#482BEB"/>
<path d="M182.649 141.975C182.634 141.967 182.62 141.96 182.605 141.953C182.621 141.933 182.636 141.913 182.652 141.894C182.666 141.908 182.681 141.922 182.695 141.936C182.68 141.949 182.664 141.962 182.649 141.975Z" fill="#482BEB"/>
<path d="M190.388 128.438C190.44 128.381 190.496 128.359 190.55 128.431C190.55 128.431 190.493 128.483 190.462 128.511C190.437 128.488 190.412 128.463 190.388 128.438Z" fill="#482BEB"/>
</svg>
