<svg width="186" height="114" viewBox="0 0 186 114" fill="none" xmlns="http://www.w3.org/2000/svg">
<path d="M0.534055 114C0.178015 114 0 113.822 0 113.466V87.6258C0 87.2698 0.178015 87.0918 0.534055 87.0918H5.34055C5.69659 87.0918 5.87461 87.2698 5.87461 87.6258V94.1167C5.87461 94.6644 5.86092 95.2122 5.83353 95.7599C5.83353 96.2803 5.81984 96.8144 5.79245 97.3621C5.79245 97.8825 5.76505 98.4165 5.71028 98.9643H5.83353C6.3265 98.2248 6.83317 97.4717 7.35353 96.7048C7.90125 95.9379 8.47638 95.1711 9.07894 94.4042L14.8714 87.3794C15.0083 87.1876 15.2137 87.0918 15.4876 87.0918H21.3622C21.5813 87.0918 21.7319 87.1603 21.8141 87.2972C21.8963 87.4068 21.8552 87.5437 21.6909 87.708L13.0638 97.9783L22.5946 113.384C22.7042 113.548 22.7179 113.699 22.6357 113.836C22.581 113.946 22.4577 114 22.266 114H16.3914C16.0902 114 15.871 113.877 15.7341 113.63L9.03786 102.62L5.87461 106.236V113.466C5.87461 113.822 5.69659 114 5.34055 114H0.534055ZM23.4134 114C23.03 114 22.893 113.808 23.0026 113.425L31.7118 87.5026C31.8214 87.2287 32.0268 87.0918 32.328 87.0918H38.6134C38.9147 87.0918 39.1064 87.2287 39.1886 87.5026L47.9799 113.425C48.0347 113.589 48.021 113.726 47.9389 113.836C47.8841 113.946 47.7609 114 47.5691 114H42.2697C41.9684 114 41.7767 113.863 41.6945 113.589L36.9702 97.6907C36.6963 96.7595 36.4361 95.8284 36.1896 94.8972C35.9432 93.9387 35.6967 92.9938 35.4502 92.0626H35.368C35.1215 92.9938 34.875 93.9387 34.6286 94.8972C34.3821 95.8284 34.1219 96.7595 33.848 97.6907L29.2058 113.548C29.1237 113.849 28.9319 114 28.6307 114H23.4134ZM29.7399 108.783L30.7258 104.099H39.9691L41.0372 108.783H29.7399ZM51.1233 114C50.7672 114 50.5892 113.822 50.5892 113.466V87.6258C50.5892 87.2698 50.7672 87.0918 51.1233 87.0918H56.0119C56.3132 87.0918 56.4638 87.2698 56.4638 87.6258V108.906H66.9806C67.3093 108.906 67.4736 109.07 67.4736 109.399V113.466C67.4736 113.822 67.3093 114 66.9806 114H51.1233ZM69.1884 114C68.805 114 68.668 113.808 68.7776 113.425L77.4868 87.5026C77.5964 87.2287 77.8018 87.0918 78.103 87.0918H84.3884C84.6897 87.0918 84.8814 87.2287 84.9636 87.5026L93.7549 113.425C93.8097 113.589 93.796 113.726 93.7139 113.836C93.6591 113.946 93.5359 114 93.3441 114H88.0447C87.7434 114 87.5517 113.863 87.4695 113.589L82.7452 97.6907C82.4713 96.7595 82.2111 95.8284 81.9647 94.8972C81.7182 93.9387 81.4717 92.9938 81.2252 92.0626H81.143C80.8965 92.9938 80.65 93.9387 80.4036 94.8972C80.1571 95.8284 79.8969 96.7595 79.623 97.6907L74.9808 113.548C74.8987 113.849 74.7069 114 74.4057 114H69.1884ZM75.5149 108.783L76.5009 104.099H85.7441L86.8122 108.783H75.5149ZM96.3642 114C96.1999 114 96.063 113.959 95.9534 113.877C95.8712 113.767 95.8302 113.63 95.8302 113.466L96.3642 87.6258C96.3642 87.2698 96.5423 87.0918 96.8983 87.0918H102.814C103.088 87.0918 103.279 87.2287 103.389 87.5026L110.044 101.717L116.617 87.5026C116.754 87.2287 116.959 87.0918 117.233 87.0918H123.108C123.437 87.0918 123.601 87.2698 123.601 87.6258L124.176 113.466C124.176 113.63 124.122 113.767 124.012 113.877C123.93 113.959 123.806 114 123.642 114H118.959C118.602 114 118.425 113.822 118.425 113.466L118.178 102.251C118.15 101.128 118.15 99.9776 118.178 98.7999C118.233 97.5949 118.288 96.4309 118.343 95.308H118.219C117.754 96.4036 117.261 97.5264 116.74 98.6767C116.22 99.827 115.686 100.936 115.138 102.004L110.701 111.001C110.592 111.22 110.386 111.33 110.085 111.33H109.88C109.606 111.33 109.415 111.22 109.305 111.001L104.827 101.922C104.306 100.854 103.786 99.7585 103.266 98.6356C102.745 97.4853 102.266 96.3761 101.828 95.308H101.705C101.759 96.4309 101.8 97.5812 101.828 98.7589C101.856 99.9365 101.856 101.073 101.828 102.169L101.581 113.466C101.581 113.822 101.404 114 101.047 114H96.3642ZM126.678 114C126.295 114 126.157 113.808 126.267 113.425L134.976 87.5026C135.086 87.2287 135.292 87.0918 135.593 87.0918H141.878C142.179 87.0918 142.371 87.2287 142.453 87.5026L151.244 113.425C151.299 113.589 151.286 113.726 151.203 113.836C151.149 113.946 151.026 114 150.834 114H145.534C145.233 114 145.041 113.863 144.959 113.589L140.235 97.6907C139.96 96.7595 139.701 95.8284 139.454 94.8972C139.208 93.9387 138.961 92.9938 138.715 92.0626H138.633C138.386 92.9938 138.14 93.9387 137.893 94.8972C137.647 95.8284 137.387 96.7595 137.113 97.6907L132.47 113.548C132.388 113.849 132.196 114 131.895 114H126.678ZM133.004 108.783L133.99 104.099H143.234L144.302 108.783H133.004ZM154.388 114C154.032 114 153.854 113.822 153.854 113.466V87.6258C153.854 87.2698 154.032 87.0918 154.388 87.0918H163.426C167.123 87.0918 169.807 87.8038 171.478 89.228C173.148 90.6522 173.984 92.7199 173.984 95.4313C173.984 97.2936 173.573 98.8684 172.751 100.156C171.93 101.443 170.67 102.347 168.972 102.867V102.908L175.463 113.384C175.572 113.548 175.586 113.699 175.504 113.836C175.448 113.946 175.312 114 175.093 114H169.67C169.396 114 169.177 113.877 169.013 113.63L163.138 103.73H159.729V113.466C159.729 113.822 159.55 114 159.195 114H154.388ZM159.729 99.1286H163.344C164.987 99.1286 166.192 98.841 166.959 98.2659C167.725 97.6907 168.109 96.7733 168.109 95.5134C168.109 94.281 167.753 93.4046 167.041 92.8842C166.356 92.3365 165.178 92.0626 163.508 92.0626H159.729V99.1286ZM179.783 114C179.427 114 179.248 113.822 179.248 113.466V87.6258C179.248 87.2698 179.427 87.0918 179.783 87.0918H184.589C184.945 87.0918 185.123 87.2698 185.123 87.6258V113.466C185.123 113.822 184.945 114 184.589 114H179.783Z" fill="#FCFAE9"/>
<path d="M100.423 35.0704C100.4 35.2623 100.26 35.2187 100.158 35.1809C99.9654 35.1098 99.9381 35.1689 99.9308 35.3578C99.9212 35.61 99.863 35.8618 99.8102 36.1107C99.7592 36.3513 99.8487 36.4525 100.089 36.4639C101.376 36.5248 102.635 36.791 103.892 37.0423C104.838 37.2313 105.789 37.4021 106.718 37.6739C108.351 38.1518 109.94 38.72 111.405 39.6102C112.015 39.9808 112.627 40.3502 113.232 40.7288C113.512 40.9047 113.758 41.1468 113.994 41.3835C114.285 41.6744 114.658 41.8785 114.919 42.1803C115.149 42.4447 115.382 42.7188 115.584 43.0111C115.83 43.368 116.076 43.7255 116.321 44.0836C117.51 45.8204 118.084 47.7476 118.102 49.8454C118.107 50.5138 118.142 51.1847 118.099 51.8501C118.033 52.8354 117.762 53.7809 117.431 54.7096C117.029 55.8345 116.568 56.9348 115.973 57.9696C115.592 58.6321 115.095 59.2126 114.495 59.7022C113.445 60.5606 112.261 61.2196 111.141 61.9763C109.849 62.8505 108.516 63.6818 107.428 64.8202C106.891 65.383 106.452 66.031 106.119 66.7402C105.376 68.3262 104.491 69.8246 103.396 71.1946C102.71 72.0531 101.84 72.6604 100.849 73.1358C100.311 73.3943 99.751 73.5807 99.1999 73.7948C98.9077 73.9083 98.5762 73.923 98.2611 73.9748C97.1696 74.1542 96.0662 74.2296 94.9687 74.357C94.4431 74.4179 93.9223 74.5217 93.39 74.5143L93.3926 74.5192C93.3859 74.5026 93.3825 74.4743 93.3719 74.4714C93.3358 74.4611 93.317 74.481 93.3191 74.5189L93.3248 74.5125C92.2496 74.576 91.1784 74.5348 90.1074 74.4188C89.2475 74.3257 88.3819 74.2627 87.5276 74.1456C86.5553 74.0122 85.5815 73.8725 84.646 73.4914C83.8501 73.167 83.0908 72.805 82.393 72.3125C81.9241 71.9814 81.5305 71.5644 81.1678 71.1231C80.4392 70.2368 79.86 69.2488 79.2867 68.2606C78.9145 67.6191 78.5933 66.9479 78.2532 66.288C77.8464 65.4988 77.2614 64.8585 76.6114 64.2642C75.8345 63.554 74.9683 62.9629 74.1054 62.3715C73.0949 61.679 72.0414 61.0494 71.0197 60.3726C69.8696 59.6107 68.9571 58.6349 68.3467 57.3794C67.8441 56.3462 67.3818 55.298 67.0268 54.2059C66.6958 53.1872 66.517 52.1427 66.5088 51.0646C66.4983 49.6687 66.5662 48.2846 66.9422 46.9327C67.1543 46.1701 67.4812 45.4508 67.8824 44.7711C68.2868 44.0859 68.725 43.4187 69.2254 42.799C69.6163 42.3149 70.0693 41.893 70.5595 41.5008C70.8665 41.2552 71.1425 40.9645 71.4598 40.7216C71.9205 40.3691 72.4197 40.08 72.9183 39.7893C73.6815 39.3444 74.459 38.9298 75.2723 38.5784C76.3534 38.1115 77.4766 37.7826 78.6163 37.5099C79.5896 37.277 80.5744 37.0921 81.5529 36.8806C81.6998 36.8487 81.8633 36.9468 81.9951 36.8187L81.9896 36.8233C82.891 36.6915 83.7893 36.4983 84.6948 36.4545C85.1275 36.4337 84.596 36.1105 84.8648 36.1421C84.7853 36.0245 84.8258 35.8897 84.8077 35.7633C84.7604 35.4344 84.6657 35.213 84.2556 35.1044C83.4798 34.899 82.7461 34.5289 82.0725 34.0979C81.7116 33.867 81.3673 33.5358 81.1597 33.1131C80.9505 32.6874 80.7325 32.2598 80.7982 31.7751C80.8193 31.6193 80.6892 31.4567 80.8265 31.3154C81.0966 31.3456 81.2126 31.2255 81.16 30.9596C81.1298 30.8068 81.1118 30.6581 81.1922 30.5134C81.0828 30.4816 81.0001 30.6519 80.899 30.485C81.1669 30.4061 81.1243 30.2466 80.9955 30.0711C80.8757 29.8013 81.0289 29.5629 81.1218 29.3412C81.2848 28.9524 81.4555 28.5632 81.7712 28.2501C81.8697 28.1525 81.9705 28.0995 82.0786 28.0378C82.1202 28.0141 82.1858 28.0737 82.2127 28.0037C82.2143 27.9996 82.1398 27.9744 82.1105 27.948C82.0783 27.9188 82.1127 27.8693 82.1323 27.8765C82.4964 28.0088 82.6752 27.6531 82.944 27.5471C83.9374 27.1554 84.8974 27.2244 85.846 27.6272C86.855 28.0557 87.6342 28.7606 88.1169 29.7511C88.3616 30.2532 88.3165 30.8118 88.3127 31.3593C88.3082 32.0157 88.198 32.6494 87.9414 33.2485C87.7213 33.7625 87.3455 34.1745 86.9052 34.5081C86.7269 34.6432 86.6843 34.7894 86.7094 34.965C86.7607 35.3225 86.842 35.6755 86.9079 36.0311C86.9522 36.2708 87.1043 36.3386 87.3293 36.3202C87.9766 36.2675 88.6249 36.2267 89.2719 36.1708C90.41 36.0724 91.55 35.999 92.692 36.0207C93.5968 36.0381 94.5095 36.0393 95.4019 36.1657C96.063 36.2594 96.731 36.1817 97.3834 36.3318C97.6848 36.4011 97.6817 36.1361 97.7282 35.9567C97.8258 35.5802 97.9139 35.2037 97.9295 34.8083C97.9356 34.6547 97.8553 34.5979 97.7837 34.5466C97.1146 34.0678 96.6811 33.4336 96.491 32.6349C96.2987 31.8274 96.2094 31.0012 96.3823 30.1908C96.5803 29.2628 97.2124 28.6102 97.975 28.0872C98.2278 27.9139 98.4993 27.7609 98.7785 27.6341C99.6609 27.2333 100.578 27.2129 101.503 27.453C101.806 27.5318 102.145 27.6545 102.368 27.8103C102.855 28.1517 103.262 28.615 103.485 29.2159C103.77 29.9863 103.832 30.7839 103.886 31.5873C103.889 31.6333 103.84 31.6828 103.815 31.7306C103.732 31.7611 103.649 31.7917 103.604 31.8086C103.718 31.9164 103.735 32.1431 103.682 32.1683C103.326 32.3352 103.503 32.4963 103.657 32.6689C103.542 32.9103 103.37 33.1387 103.261 33.3566C102.846 34.1855 102.027 34.3529 101.328 34.7253C101.039 34.8787 100.754 35.032 100.423 35.0704L100.389 35.0343C100.385 35.0472 100.381 35.0603 100.377 35.0732C100.392 35.0723 100.408 35.0713 100.423 35.0704ZM103.412 31.9714C103.393 31.9632 103.371 31.9447 103.357 31.95C103.344 31.9552 103.34 31.9843 103.332 32.003C103.35 32.0111 103.373 32.0297 103.386 32.0245C103.399 32.019 103.403 31.9902 103.412 31.9714Z" fill="#FCFAE9"/>
<path d="M98.9265 5.79777C98.163 5.78804 97.3953 5.77429 96.6573 6.00431C96.2291 6.13776 95.813 6.31306 95.3988 6.48693C95.1568 6.58848 94.9157 6.6522 94.6579 6.59306C94.538 6.56554 94.3377 6.66244 94.3593 6.38207C94.3733 6.20038 94.2204 6.47068 94.091 6.31331C93.7272 5.87057 93.6777 5.38622 93.7698 4.88147C93.9177 4.07066 94.4823 3.49448 95.006 2.91095C95.875 1.94268 96.9786 1.32709 98.1872 0.890779C99.4426 0.437603 100.74 0.168947 102.075 0.121965C102.862 0.0942314 103.647 -0.0310276 104.439 0.0351832C104.909 0.0745094 105.382 0.0717045 105.838 0.236248C106.396 0.437949 107.004 0.409719 107.572 0.591153C108.292 0.821197 109.034 0.969371 109.735 1.27495C110.14 1.45133 110.594 1.53481 111.014 1.69401C111.644 1.9327 112.271 2.17741 112.891 2.43848C113.591 2.73304 114.306 3.00642 114.972 3.36489C115.961 3.89632 116.964 4.4018 117.913 5.01529C118.505 5.39835 119.101 5.77917 119.678 6.18587C120.577 6.82068 121.411 7.5364 122.198 8.30878C122.872 8.96957 123.453 9.70274 124.018 10.4532C124.453 11.0317 124.889 11.6095 125.316 12.1938C125.88 12.9655 126.368 13.7871 126.784 14.645C127.213 15.5291 127.588 16.4381 127.932 17.3604C128.36 18.5015 128.688 19.669 128.962 20.8531C129.258 22.1246 129.376 23.421 129.473 24.7181C129.506 25.1603 129.406 25.604 129.468 26.0557C129.514 26.3967 129.234 26.5453 128.903 26.3969C128.495 26.2137 128.098 25.997 127.658 25.8986C126.922 25.7334 126.17 25.7937 125.427 25.829C124.686 25.8644 123.948 25.9809 123.211 26.0739C122.257 26.1941 121.304 26.3177 120.352 26.4558C119.61 26.5636 118.867 26.723 118.12 26.699C117.442 26.6774 116.765 26.6443 116.082 26.5112C115.343 26.3669 114.632 26.159 113.913 25.9523C112.899 25.6605 112.178 25.0095 111.603 24.1698C111.283 23.7044 111.019 23.2022 110.703 22.7347C110.557 22.5184 110.258 22.469 110.091 22.2416C109.685 21.6906 109.115 21.6318 108.499 21.794C108.311 21.8434 108.16 21.709 107.978 21.7284C107.416 21.7887 106.848 21.7698 106.291 21.7183C105.365 21.6328 104.454 21.4662 103.574 21.1369C103.038 20.9365 102.51 20.7288 101.997 20.4744C101.148 20.0534 100.388 19.5051 99.6787 18.8874C98.5124 17.8714 97.4355 16.7671 96.4938 15.5366C96.0661 14.9779 95.7215 14.3683 95.4138 13.7369C95.0598 13.0102 94.8407 12.2537 94.8719 11.4355C94.8841 11.1156 94.9256 10.7987 95.0122 10.4944C95.1794 9.90658 95.9032 9.89577 96.2907 10.1902C96.3333 10.2226 96.3744 10.2664 96.4219 10.2718C96.8525 10.3209 97.1735 10.6073 97.546 10.7813C98.2881 11.128 99.0316 11.4718 99.7769 11.8115C100.7 12.2319 101.618 12.6647 102.599 12.9352C103.345 13.1409 104.094 13.2874 104.883 13.2727C105.533 13.2606 106.194 13.2738 106.818 13.1377C107.376 13.0158 108.004 12.9671 108.444 12.49C108.522 12.4057 108.663 12.3297 108.808 12.3831C109.046 12.4709 109.11 12.2849 109.119 12.138C109.165 11.4562 109.1 10.7881 108.615 10.2531C107.881 9.44134 107.036 8.75369 106.122 8.15385C105.147 7.51405 104.133 6.94119 103.055 6.49369C101.956 6.03792 100.822 5.73936 99.6171 5.79622C99.3873 5.80706 99.1567 5.79777 98.9265 5.79777ZM108.31 12.7369C108.303 12.7293 108.296 12.7159 108.289 12.7153C108.282 12.7147 108.273 12.7268 108.266 12.7334C108.273 12.7406 108.28 12.7531 108.288 12.7534C108.295 12.7537 108.304 12.7418 108.31 12.7369Z" fill="#FCFAE9"/>
<path d="M76.5635 12.8237C76.6127 12.7874 76.661 12.7645 76.7036 12.8325C76.7286 13.1994 77.0139 12.9714 77.1709 13.0369C77.7275 13.1156 78.2821 13.2336 78.8413 13.2625C79.4527 13.2942 80.0732 13.2871 80.6812 13.2198C81.9879 13.0752 83.1865 12.5686 84.3696 12.0243C85.0912 11.6923 85.8258 11.3887 86.5432 11.0482C86.9865 10.8378 87.3869 10.5158 87.8464 10.3672C88.2277 10.2441 88.5556 9.94424 89.0069 10.0074C89.3487 10.0552 89.5396 10.2113 89.6244 10.5404C89.8518 11.4231 89.7818 12.284 89.4676 13.1329C89.0358 14.2999 88.3718 15.3262 87.5538 16.2539C86.5126 17.4349 85.4176 18.5621 84.1596 19.519C83.0324 20.3764 81.7687 20.9543 80.4149 21.3463C79.5196 21.6056 78.6089 21.7597 77.6717 21.7438C76.9457 21.7314 76.2188 21.7567 75.4935 21.7312C75.1574 21.7194 74.915 21.8622 74.7006 22.0733C74.4679 22.3024 74.2622 22.5553 73.9694 22.7195C73.8478 22.7877 73.8023 22.9358 73.7337 23.0589C73.4209 23.6202 73.0596 24.1548 72.6427 24.6399C72.1004 25.2711 71.45 25.745 70.6233 25.997C69.7083 26.2759 68.7937 26.5496 67.8426 26.6329C66.7675 26.7269 65.6983 26.6949 64.6217 26.4896C63.9704 26.3654 63.2939 26.306 62.6279 26.2247C61.975 26.1449 61.322 26.0684 60.6709 25.9686C60.0469 25.873 59.4111 25.8518 58.7796 25.808C58.2205 25.7692 57.6627 25.7868 57.1065 25.8676C56.6493 25.934 56.2387 26.1378 55.8417 26.3427C55.6334 26.4503 55.4884 26.4164 55.3211 26.3497C55.1227 26.2706 55.1405 25.9982 55.1781 25.927C55.3436 25.6142 55.1914 25.31 55.1812 25.0185C55.1578 24.3535 55.2503 23.704 55.3082 23.0493C55.4559 21.3791 55.8609 19.756 56.3917 18.1797C57.0308 16.2816 57.798 14.4223 58.9169 12.7426C59.651 11.6406 60.5049 10.6237 61.2979 9.56366C61.795 8.89941 62.392 8.3373 62.9834 7.77281C63.5414 7.24023 64.1628 6.77259 64.7805 6.30465C65.4431 5.80261 66.1371 5.34427 66.8392 4.90761C67.4981 4.49783 68.1778 4.11297 68.8855 3.77689C69.5002 3.48503 70.0917 3.12935 70.7237 2.8814C71.3904 2.61985 72.0502 2.33257 72.7094 2.06021C73.9127 1.56289 75.1478 1.17861 76.3818 0.78297C76.8707 0.626259 77.3671 0.45976 77.8725 0.395899C78.8389 0.273798 79.7768 -0.0571287 80.7689 0.00853483C82.6482 0.132922 84.5337 0.182397 86.3371 0.844616C87.9748 1.446 89.3637 2.36718 90.368 3.81056C90.6894 4.27251 90.9537 4.76569 90.8998 5.37452C90.8863 5.52699 90.7378 5.63763 90.806 5.79708C90.5277 5.77939 90.5296 6.02913 90.4344 6.18623C90.3822 6.19106 90.3298 6.19589 90.2774 6.20072C90.0955 6.36811 89.791 6.23712 89.6298 6.4646C89.6194 6.47932 89.546 6.4588 89.5071 6.4423C89.3913 6.39308 89.2714 6.40853 89.152 6.4101C88.8933 6.39972 88.6722 6.25815 88.4449 6.16819C87.4502 5.77454 86.4084 5.77956 85.3731 5.77187C84.5276 5.7656 83.6778 5.79319 82.8543 6.0503C81.8107 6.37615 80.8134 6.80344 79.8578 7.33377C78.7966 7.92271 77.7945 8.59686 76.8788 9.39367C76.4521 9.765 76.0568 10.1703 75.7636 10.6613C75.4452 11.1947 75.4284 11.7674 75.555 12.3566C75.6072 12.4373 75.6622 12.5088 75.7361 12.5786C75.9305 12.7621 76.3035 12.5841 76.4147 12.9427C76.4379 13.0176 76.5664 12.9403 76.5635 12.8237Z" fill="#FCFAE9"/>
<path d="M64.1481 28.4788C64.4108 28.599 64.6708 28.7254 64.9372 28.8366C65.0833 28.8976 65.0904 29.0433 65.0854 29.1373C65.0539 29.7303 65.1713 30.3325 65.0125 30.9163C64.8466 31.5256 64.705 32.1417 64.4728 32.7334C64.3482 33.0508 64.2625 33.3803 64.0714 33.6718C64.0409 33.7183 64.1384 33.8675 64.262 33.853C65.3773 33.723 66.344 34.2029 67.3292 34.5993C68.1987 34.9491 68.9496 35.495 69.648 36.1044C69.9406 36.3596 70.1679 36.6956 70.3297 37.0615C70.5259 37.5052 70.8503 37.8295 71.2591 38.0826C71.4574 38.2053 71.627 38.378 71.8322 38.485C72.1206 38.6352 72.0174 38.7558 71.834 38.8842C71.575 39.0655 71.3204 39.2564 71.0465 39.4127C70.4502 39.753 69.8777 40.1184 69.3214 40.5284C68.6435 41.0279 68.0715 41.6334 67.5592 42.2626C67.1006 42.8259 66.6867 43.465 66.4317 44.1871C66.2547 44.6886 66.2236 45.2364 65.8962 45.704C65.7737 45.8789 65.7653 45.7384 65.7439 45.7169C65.5241 45.4949 65.3174 45.26 65.0962 45.0396C64.456 44.4016 63.6819 43.9463 62.9261 43.4672C61.7003 42.6901 60.4201 41.9941 59.369 40.9648C58.4164 40.0319 57.4913 39.0769 56.9111 37.8574C56.4955 36.9842 56.2863 36.0424 56.0891 35.0988C55.8677 34.0391 55.6738 32.9744 55.5668 31.8981C55.5368 31.5963 55.3288 31.2786 55.5606 30.9703C55.2537 30.5883 55.4168 30.1151 55.3165 29.692C55.2736 29.5112 55.2795 29.3167 55.2786 29.1283C55.2761 28.5852 55.2798 28.569 55.797 28.4466C56.6925 28.2345 57.558 27.9056 58.4873 27.8218C59.2685 27.7514 60.0485 27.7105 60.8313 27.7236C61.3153 27.7318 61.8038 27.7129 62.2775 27.8412C62.8946 28.0084 63.5148 28.1675 64.1026 28.427C64.0776 28.4379 64.0357 28.4449 64.0632 28.4816C64.0729 28.4945 64.1187 28.4806 64.1481 28.4788Z" fill="#FCFAE9"/>
<path d="M126.275 27.8368C126.718 27.9632 127.187 27.9521 127.628 28.1053C128.124 28.2769 128.635 28.4062 129.141 28.5438C129.337 28.5971 129.35 28.7303 129.354 28.8962C129.368 29.5737 129.277 30.2438 129.202 30.9132C129.101 31.8027 128.981 32.691 128.833 33.5738C128.604 34.9462 128.371 36.3273 127.845 37.6198C127.474 38.5311 126.862 39.3171 126.189 40.038C125.477 40.7999 124.737 41.5342 123.858 42.1098C123.302 42.4747 122.755 42.8581 122.179 43.1914C120.968 43.8927 119.797 44.6381 118.885 45.7248C118.858 45.7574 118.819 45.7805 118.762 45.8272C118.584 45.5302 118.468 45.2168 118.399 44.9031C118.253 44.248 117.986 43.6555 117.636 43.0867C116.953 41.9742 116.05 41.0515 115.032 40.2703C114.516 39.8746 113.944 39.5065 113.338 39.225C113.093 39.1112 112.906 38.9151 112.691 38.7595C112.538 38.649 112.678 38.5773 112.739 38.5302C112.956 38.361 113.178 38.1942 113.414 38.0518C113.777 37.8324 114.066 37.5504 114.246 37.165C114.665 36.2672 115.394 35.6715 116.218 35.1857C117.265 34.5676 118.361 34.0506 119.581 33.8697C119.896 33.823 120.217 33.8219 120.566 33.7979C120.187 32.8737 119.826 31.9562 119.64 30.9893C119.51 30.3098 119.442 29.6207 119.616 28.9244C119.644 28.8114 119.772 28.8645 119.741 28.7668C120.465 28.5519 121.109 28.1291 121.85 27.9624C122.549 27.8053 123.249 27.7076 123.973 27.733C124.444 27.7495 124.917 27.7492 125.388 27.7596C125.69 27.7663 125.981 27.8452 126.281 27.8417L126.275 27.8368Z" fill="#FCFAE9"/>
<path d="M128.684 53.9595C127.336 54.0487 125.773 54.0233 124.211 54.0499C122.695 54.0759 121.178 54.0442 119.662 54.0378C119.595 54.0374 119.524 54.0207 119.463 54.0393C119.33 54.08 119.182 54.2388 119.072 54.1038C118.984 53.9953 119.135 53.8407 119.174 53.7049C119.52 52.4833 119.691 51.2413 119.589 49.9718C119.569 49.7259 119.655 49.6124 119.879 49.5995C120.565 49.5606 121.246 49.4848 121.933 49.4509C122.874 49.4044 123.813 49.395 124.752 49.4365C125.695 49.4783 126.646 49.4656 127.572 49.7204C127.847 49.7957 128.134 49.8247 128.407 49.9146C128.581 49.9719 128.729 49.9108 128.872 49.8054C130.018 48.9582 131.273 48.3204 132.635 47.9041C133.308 47.6984 134.004 47.6643 134.694 47.8067C134.847 47.8382 135.004 47.8387 135.161 47.8943C135.609 48.052 135.729 48.2854 135.593 48.7443C135.462 49.189 135.21 49.5534 134.907 49.8813C134.152 50.6978 133.389 51.5097 132.608 52.3009C132.285 52.627 131.916 52.9115 131.544 53.1819C131.383 53.2997 131.372 53.5786 131.139 53.5805C130.867 53.583 130.664 53.7628 130.396 53.7953C129.897 53.8556 129.402 53.947 128.684 53.9595Z" fill="#FCFAE9"/>
<path d="M65.0387 50.7665C65.0164 51.8227 65.2027 52.8483 65.5095 53.8555C65.5354 53.9404 65.6491 54.0358 65.5399 54.122C65.4671 54.1795 65.3736 54.125 65.2869 54.0983C64.9096 53.982 64.5165 54.0214 64.132 54.0184C63.0247 54.0094 61.9172 54.0379 60.8097 54.039C59.6694 54.0402 58.5283 54.0526 57.3892 54.0119C56.3495 53.9747 55.3014 54.0177 54.274 53.8079C53.9616 53.7441 53.6174 53.683 53.3686 53.5068C53.1485 53.351 52.9755 53.1063 52.7585 52.9163C51.5485 51.8565 50.417 50.7186 49.3961 49.4718C49.1599 49.1833 49.068 48.8467 48.996 48.5096C48.9187 48.1475 49.157 47.9634 49.535 47.8853C49.9685 47.7958 50.3962 47.7114 50.8401 47.7239C51.6628 47.7471 52.4184 48.0333 53.169 48.3281C54.0963 48.6922 54.9304 49.2274 55.7398 49.7983C55.9394 49.9391 56.1195 49.9422 56.3323 49.885C57.4156 49.5937 58.521 49.4692 59.6406 49.45C60.9872 49.4269 62.3333 49.3588 63.6778 49.5253C64.0478 49.5712 64.4272 49.5182 64.8 49.6054C64.9956 49.6511 65.0506 49.7436 65.042 49.9305C65.0292 50.2086 65.0387 50.4877 65.0387 50.7665Z" fill="#FCFAE9"/>
<path d="M76.2881 74.6944C75.3327 74.6944 74.3576 74.7081 73.3832 74.6875C73.0119 74.6797 72.6368 74.7092 72.2737 74.681C71.6175 74.6299 70.969 74.7456 70.3186 74.6999C69.8434 74.6665 69.3771 74.7131 68.9219 74.8273C68.1652 75.0172 67.4214 75.2422 66.7189 75.6023C66.1444 75.8967 65.5381 76.138 64.8888 76.2197C64.4562 76.274 63.9613 75.9573 63.8001 75.552C63.7559 75.441 63.7081 75.3161 63.7693 75.2024C63.9505 74.8654 64.0006 74.4883 64.1096 74.1299C64.2321 73.7278 64.5522 73.4866 64.8604 73.2808C65.4997 72.8541 66.1687 72.4659 66.851 72.1108C67.5663 71.7385 68.3017 71.4042 69.0425 71.0802C69.8015 70.7482 70.5569 70.4076 71.3289 70.1075C72.0297 69.8351 72.7374 69.5792 73.449 69.3364C73.7039 69.2495 73.9773 69.2065 74.246 69.1725C74.4896 69.1416 74.7187 69.0903 74.9163 68.9404C75.1076 68.7953 75.3593 68.8552 75.5047 68.9177C76.0383 69.1464 76.6206 69.2147 77.1426 69.4844C77.7519 69.7992 78.2524 70.2256 78.6909 70.7398C78.9987 71.1007 79.1933 71.53 79.4246 71.9377C79.5653 72.1855 79.7795 72.3718 80.004 72.5405C80.3155 72.7747 80.3584 72.989 80.0879 73.2669C79.779 73.5845 79.4055 73.8077 78.9984 73.9977C78.4386 74.2591 77.8451 74.3874 77.2575 74.5433C76.9485 74.6253 76.6177 74.5652 76.2881 74.6944ZM73.9014 74.6258C73.9093 74.6348 73.9166 74.6431 73.924 74.6514C73.9319 74.6437 73.9399 74.6361 73.948 74.6284C73.9359 74.6208 73.924 74.6131 73.912 74.6055C73.908 74.6131 73.9041 74.6208 73.9014 74.6258Z" fill="#FCFAE9"/>
<path d="M111.013 69.3024C111.871 69.5755 112.714 69.885 113.55 70.2187C114.559 70.6218 115.561 71.0435 116.543 71.5078C117.081 71.7618 117.628 72.0057 118.132 72.3164C118.767 72.7069 119.465 72.9919 120.037 73.4906C120.244 73.672 120.408 73.8647 120.496 74.1154C120.624 74.4849 120.729 74.8623 120.864 75.2308C120.942 75.4435 120.81 75.6363 120.66 75.7964C120.293 76.1889 119.668 76.3136 119.148 76.1045C118.12 75.6915 117.107 75.2342 116.057 74.89C115.485 74.7024 114.855 74.6629 114.235 74.6879C113.921 74.7008 113.603 74.6648 113.288 74.665C112.92 74.6653 112.549 74.658 112.185 74.669C111.731 74.6829 111.276 74.653 110.821 74.6854C110.378 74.7168 109.932 74.6955 109.487 74.6743C109.074 74.6546 108.661 74.6908 108.247 74.6144C108.032 74.5745 107.81 74.6361 107.575 74.5869C107.037 74.475 106.524 74.3149 106.005 74.1381C105.5 73.9656 105.072 73.6997 104.667 73.377C104.261 73.0538 104.244 72.7811 104.669 72.4895C105.077 72.2094 105.295 71.8069 105.518 71.4031C106.1 70.3561 106.922 69.6056 108.085 69.2589C108.546 69.1214 108.989 68.9168 109.48 68.8954C109.523 68.8935 109.59 68.8522 109.604 68.8678C109.99 69.276 110.549 69.1142 111.003 69.2923C110.974 69.3031 110.945 69.314 110.916 69.3248C110.929 69.3355 110.941 69.3536 110.954 69.3554C110.991 69.3602 111.015 69.3431 111.013 69.3024Z" fill="#FCFAE9"/>
<path d="M113.799 62.6382C114.544 62.7495 115.226 62.8701 115.911 62.9495C117.342 63.1152 118.78 63.1856 120.22 63.1646C121.344 63.1484 122.461 63.3174 123.584 63.2695C124.287 63.2396 124.915 63.4355 125.482 63.835C125.553 63.8848 125.617 63.8798 125.684 63.9006C126.299 64.0906 126.519 64.7273 126.169 65.2848C125.7 66.0328 125.1 66.6041 124.285 67.0092C123.767 67.2658 123.257 67.2923 122.73 67.3689C121.463 67.5528 120.19 67.4793 118.919 67.4583C117.871 67.4411 116.818 67.3894 115.785 67.1948C115.186 67.0821 114.587 66.9744 113.987 66.8731C113.17 66.7356 112.346 66.728 111.522 66.7403C110.748 66.7519 109.975 66.7628 109.202 66.7739C108.879 66.7785 108.556 66.7837 108.232 66.7869C108.136 66.7878 108.006 66.8395 107.957 66.7334C107.913 66.6371 108.017 66.5513 108.075 66.4753C108.385 66.0736 108.777 65.7453 109.197 65.4819C110.002 64.9771 110.706 64.3385 111.496 63.8188C111.985 63.4971 112.398 63.056 112.954 62.846C113.241 62.7379 113.552 62.6968 113.799 62.6382Z" fill="#FCFAE9"/>
<path d="M76.7141 66.809C75.8172 66.6875 74.974 66.8173 74.1257 66.7673C73.578 66.735 73.0103 66.7797 72.4599 66.7737C71.7443 66.7658 71.0465 66.8224 70.347 66.9316C69.6298 67.0437 68.9152 67.1716 68.1985 67.2866C67.7234 67.3628 67.2483 67.3886 66.7634 67.3892C66.2638 67.3898 65.7582 67.4569 65.255 67.4521C64.4297 67.4445 63.6056 67.4872 62.7784 67.4546C62.1359 67.4293 61.5103 67.3036 60.8737 67.2586C60.5992 67.2392 60.4051 67.0276 60.1829 66.9048C59.9659 66.7849 59.735 66.6594 59.5258 66.502C59.1341 66.2073 58.8479 65.8605 58.5977 65.4463C58.4308 65.1701 58.2577 64.9201 58.3104 64.5862C58.3551 64.3035 58.4746 64.083 58.7721 63.9647C59.0972 63.8352 59.4019 63.6516 59.717 63.5002C60.1082 63.3122 60.5567 63.2632 60.9891 63.278C61.8044 63.3059 62.6117 63.1907 63.4212 63.1806C64.3668 63.1689 65.3119 63.1544 66.2574 63.1257C67.6522 63.0833 69.0358 62.9553 70.4063 62.6859C70.9016 62.5885 71.3846 62.7195 71.8067 62.9451C72.5764 63.3567 73.2829 63.8765 73.9507 64.4384C74.5927 64.9784 75.3552 65.3475 75.9788 65.9099C76.2491 66.1538 76.554 66.3677 76.7141 66.809Z" fill="#FCFAE9"/>
<path d="M58.8831 62.7003C58.3096 62.9687 58.1123 63.5443 57.7684 63.9963C57.4292 64.4421 57.4252 64.967 57.488 65.477C57.5274 65.7976 57.8063 66.0379 58.029 66.2568C58.4462 66.6668 58.9123 67.0271 59.416 67.4575C58.7565 67.1662 58.2294 67.5441 57.6687 67.637C56.8529 67.7721 56.0426 67.967 55.2463 68.1811C54.8702 68.2821 54.4809 68.4489 54.1002 68.5785C53.4672 68.7942 52.8466 69.0356 52.2332 69.2976C51.8388 69.466 51.4524 69.6529 51.0614 69.8294C50.563 70.0543 50.0647 70.2795 49.5643 70.5001C48.8905 70.7971 48.1891 71.0435 47.5469 71.3974C46.8793 71.7653 46.2247 72.1602 45.5613 72.5382C45.3627 72.6514 45.1452 72.6701 44.9403 72.7234C44.6506 72.7987 44.4181 73.0209 44.1115 73.0224C44.0468 73.0227 43.9825 73.1245 43.8972 73.0055C43.8179 72.8949 43.8628 72.8298 43.9047 72.7468C44.2059 72.1508 44.5951 71.6066 44.9262 71.0291C45.3455 70.2977 45.9861 69.7919 46.6106 69.2638C46.9495 68.9771 47.2874 68.6892 47.6227 68.3984C48.3382 67.7777 49.1591 67.3165 49.9708 66.8418C50.5547 66.5004 51.1333 66.1487 51.73 65.8309C52.4272 65.4597 53.0703 64.9986 53.7632 64.6261C54.2543 64.362 54.7799 64.149 55.2804 63.9042C56.1226 63.4923 57.0006 63.1914 57.8752 62.8741C58.1905 62.7597 58.5175 62.6591 58.8831 62.7003Z" fill="#FCFAE9"/>
<path d="M125.253 67.4043C125.622 67.1955 125.859 66.8408 126.207 66.6178C126.592 66.3701 126.885 66.004 127.082 65.6256C127.293 65.221 127.234 64.6923 127.01 64.2983C126.676 63.7094 126.412 63.0351 125.705 62.7217C125.954 62.6543 125.957 62.6457 126.382 62.7666C127.626 63.1209 128.813 63.6278 129.981 64.1763C130.924 64.6183 131.768 65.2351 132.681 65.72C133.431 66.1173 134.125 66.5995 134.876 66.9891C136.132 67.6411 137.164 68.592 138.259 69.4701C139.292 70.2989 139.912 71.3853 140.571 72.4681C140.625 72.5571 140.711 72.6554 140.638 72.776C140.558 72.9081 140.419 72.894 140.306 72.8674C139.662 72.715 139.033 72.5607 138.45 72.1899C137.883 71.8293 137.269 71.53 136.669 71.2147C136.351 71.0472 136 70.9485 135.694 70.7388C135.565 70.6501 135.32 70.6501 135.174 70.5427C134.847 70.3024 134.439 70.2782 134.095 70.0703C133.704 69.834 133.246 69.7126 132.837 69.5034C132.106 69.1304 131.332 68.8601 130.57 68.5741C129.424 68.1438 128.229 67.8663 127.01 67.6993C126.655 67.6505 126.316 67.4943 125.964 67.4029C125.712 67.3377 125.496 67.3739 125.253 67.4043ZM140.444 72.6567C140.437 72.663 140.429 72.6692 140.421 72.6754C140.428 72.6823 140.435 72.6943 140.443 72.6947C140.45 72.695 140.458 72.6837 140.465 72.6775C140.458 72.6704 140.452 72.6632 140.444 72.6567ZM126.848 67.6057C126.855 67.5992 126.862 67.5929 126.87 67.5864C126.863 67.5794 126.856 67.5724 126.849 67.5654C126.842 67.5752 126.834 67.5851 126.826 67.5948C126.834 67.5984 126.841 67.6021 126.848 67.6057Z" fill="#FCFAE9"/>
<path d="M57.1419 59.1472C57.0629 58.557 57.5158 58.2906 57.9003 58.0832C59.1424 57.413 60.4698 56.9694 61.86 56.6881C62.5725 56.5439 63.2779 56.3746 64.0025 56.3012C64.6393 56.2367 65.2755 56.235 65.9128 56.2957C66.0106 56.3051 66.0428 56.354 66.0636 56.4372C66.4154 57.8517 67.3849 58.8464 68.3376 59.8715C68.9701 60.552 69.7922 60.9539 70.4864 61.5354C70.5628 61.5994 70.6588 61.6398 70.7354 61.7037C70.8043 61.7611 70.963 61.7751 70.9064 61.9045C70.8653 61.9985 70.7646 62.0736 70.6346 62.0658C70.269 62.0441 69.9036 62.0174 69.5378 62.0084C68.7151 61.9882 67.8908 61.9875 67.0763 61.8529C66.4147 61.7435 65.7576 61.6061 65.0964 61.4937C64.1364 61.3306 63.1708 61.2213 62.1963 61.175C61.1756 61.1266 60.1456 61.1714 59.1379 60.9709C58.3369 60.8116 57.6609 60.4371 57.2416 59.6896C57.1417 59.5116 57.1469 59.3329 57.1419 59.1472Z" fill="#FCFAE9"/>
<path d="M123.872 61.1145C123.281 61.1522 122.689 61.1905 122.101 61.2029C120.99 61.2264 119.892 61.3729 118.821 61.61C117.468 61.9096 116.113 62.0081 114.739 62.0122C114.498 62.0129 114.266 62.1105 114.02 62.0745C113.905 62.0577 113.786 62.0458 113.744 61.9282C113.696 61.7857 113.833 61.7451 113.92 61.6819C114.308 61.4006 114.679 61.0905 115.088 60.8428C116.168 60.1878 116.92 59.2098 117.695 58.2539C118.087 57.7722 118.361 57.2191 118.503 56.6161C118.567 56.3375 118.769 56.2313 118.961 56.2676C119.38 56.347 119.785 56.237 120.2 56.2661C120.978 56.3204 121.74 56.4305 122.497 56.6206C123.265 56.8133 124.03 57.0105 124.792 57.2274C125.392 57.3982 125.92 57.7218 126.489 57.9557C126.729 58.0543 126.924 58.2088 127.126 58.3673C127.756 58.8644 127.514 59.6579 127.079 60.124C126.252 61.0124 125.157 61.035 124.072 61.1143C124.005 61.1191 123.939 61.1149 123.872 61.1145Z" fill="#FCFAE9"/>
<path d="M60.221 56.907C59.6552 57.04 59.1091 57.2198 58.5684 57.4429C58.058 57.6536 57.6042 57.9467 57.1436 58.2301C56.6624 58.5261 56.1538 58.8015 56.187 59.5285C56.2087 60.0015 56.4667 60.2794 56.7558 60.5706C56.833 60.6483 56.9394 60.7007 57.0042 60.7861C57.0528 60.8502 57.2076 60.892 57.1069 61.0177C57.0357 61.1067 56.9196 61.1716 56.8167 61.1539C55.9262 61.0008 55.0311 61.0425 54.1492 61.1633C53.6232 61.2353 53.0937 61.3379 52.5706 61.4707C51.9561 61.6268 51.352 61.8212 50.7342 61.9647C50.3502 62.0538 49.9614 62.1341 49.5897 62.2619C48.9569 62.4793 48.3227 62.4415 47.7708 62.1264C47.3881 61.9079 46.985 61.651 46.7222 61.2535C46.3956 60.7597 46.5746 60.0643 47.1618 59.68C47.5477 59.4274 47.9453 59.189 48.3542 58.9758C49.0386 58.6188 49.7206 58.2497 50.4318 57.9532C51.6129 57.4607 52.8028 56.9802 54.0506 56.677C54.3749 56.5982 54.7066 56.4912 55.0636 56.6215C55.2132 56.6761 55.4132 56.6014 55.5887 56.5749C56.4998 56.4372 57.4127 56.6154 58.3254 56.5554C58.9338 56.5154 59.5434 56.458 60.155 56.4989C60.2653 56.5063 60.3759 56.513 60.4852 56.5277C60.5219 56.5326 60.5982 56.5264 60.5501 56.6118C60.5374 56.6344 60.6488 56.6806 60.515 56.6962C60.4087 56.7085 60.3155 56.8331 60.2165 56.9079L60.221 56.907Z" fill="#FCFAE9"/>
<path d="M130.533 61.1599C130.162 61.1276 129.792 61.0259 129.419 61.0669C128.979 61.1153 128.536 61.0052 128.099 61.1125C128.024 61.1308 127.944 61.127 127.866 61.1262C127.717 61.1247 127.556 61.0756 127.51 60.9473C127.466 60.8255 127.622 60.7451 127.719 60.6805C127.908 60.5554 128.062 60.4005 128.195 60.2169C128.582 59.6812 128.522 59.0087 128.02 58.5806C127.556 58.1845 126.997 57.9348 126.464 57.6527C126.285 57.5577 126.149 57.3857 125.934 57.3498C125.884 57.3413 126.071 57.2397 125.938 57.2551C125.417 57.3154 125.009 56.9593 124.523 56.9012C124.31 56.8756 124.133 56.7709 123.97 56.5944C124.43 56.4403 124.886 56.4737 125.327 56.498C126.273 56.5499 127.216 56.5855 128.163 56.5221C128.542 56.4967 128.921 56.5488 129.295 56.6157C129.622 56.6743 129.939 56.5247 130.281 56.6179C131.087 56.8374 131.893 57.0379 132.672 57.3565C133.313 57.6186 133.964 57.8553 134.588 58.155C135.189 58.4427 135.798 58.7 136.372 59.0559C136.738 59.2826 137.126 59.5028 137.507 59.7203C138.185 60.108 138.245 61.1015 137.616 61.5376C137.254 61.7884 136.949 62.1184 136.517 62.2645C135.985 62.4438 135.462 62.3863 134.935 62.2415C133.669 61.8939 132.415 61.5015 131.118 61.2778C130.936 61.2464 130.753 61.2229 130.57 61.1958C130.586 61.1823 130.614 61.1567 130.614 61.1567C130.587 61.1209 130.559 61.1318 130.533 61.1599Z" fill="#FCFAE9"/>
<path d="M135.614 50.2744C135.91 49.8698 136.208 49.466 136.502 49.0603C136.869 48.555 136.914 47.9845 136.713 47.4274C136.521 46.8932 136.043 46.6147 135.485 46.6676C135.056 46.7081 134.62 46.699 134.201 46.8334C134.112 46.8616 133.955 46.9516 133.916 46.8355C133.863 46.678 133.865 46.4793 134.022 46.3521C134.132 46.2625 134.255 46.1825 134.385 46.1248C135.056 45.8258 135.535 45.2428 136.224 44.946C137.152 44.5465 138.116 44.3699 139.1 44.2659C140.624 44.1045 142.128 44.241 143.604 44.67C143.961 44.7738 144.29 44.9335 144.584 45.1496C144.793 45.3038 144.772 45.572 144.736 45.7988C144.692 46.0722 144.51 46.2552 144.233 46.3144C143.503 46.4705 142.77 46.6176 142.04 46.7725C140.198 47.163 138.57 47.9553 137.212 49.2887C136.764 49.7284 136.197 50.0233 135.614 50.2744Z" fill="#FCFAE9"/>
<path d="M48.9573 50.2483C48.8846 50.2929 48.8245 50.2538 48.7699 50.2181C48.3533 49.946 47.8764 49.7331 47.5337 49.3873C45.9229 47.7621 43.9288 46.9677 41.7266 46.5843C41.2878 46.508 40.8513 46.4161 40.4168 46.318C40.1192 46.2507 39.9399 46.0524 39.8905 45.7501C39.8391 45.4353 39.9443 45.2098 40.2277 45.0263C40.8176 44.6446 41.49 44.5313 42.1524 44.4096C44.1966 44.0341 46.2138 44.1504 48.1827 44.8463C48.6136 44.9985 49.0121 45.2272 49.36 45.5235C49.6733 45.7901 50.0121 46.01 50.371 46.2059C50.4723 46.2611 50.6008 46.3343 50.6346 46.4287C50.6825 46.5627 50.8334 46.729 50.7323 46.8437C50.6265 46.9637 50.4423 46.8505 50.2969 46.8121C49.7347 46.6636 49.1588 46.6041 48.5971 46.7411C48.25 46.8256 47.9541 47.1174 47.884 47.457C47.8015 47.8565 47.7416 48.2884 47.9346 48.7009C48.1695 49.2033 48.5439 49.6057 48.8548 50.0537C48.8963 50.1135 48.9662 50.1613 48.9573 50.2483Z" fill="#FCFAE9"/>
<path d="M119.619 76.7425C119.915 76.5038 120.258 76.6559 120.57 76.561C121.226 76.3609 121.507 75.9391 121.315 75.2849C121.16 74.7565 120.99 74.234 120.644 73.7884C120.547 73.6625 120.461 73.5183 120.551 73.3223C121.056 73.6805 121.561 74.0569 122.085 74.4061C122.988 75.0082 123.796 75.7288 124.612 76.4356C126.191 77.805 127.234 79.5128 127.692 81.5662C127.75 81.8312 127.613 81.9824 127.44 82.0887C127.253 82.2034 127.036 82.1866 126.857 82.021C126.512 81.7035 126.161 81.393 125.82 81.0716C124.956 80.2554 123.96 79.6147 122.982 78.9506C122.345 78.5186 121.803 77.9635 121.141 77.559C120.651 77.2589 120.123 77.0297 119.619 76.7425Z" fill="#FCFAE9"/>
<path d="M64.1504 73.3716C63.8036 74.1086 63.3424 74.7819 63.263 75.5971C63.2096 76.1455 63.5067 76.463 64.0521 76.5378C64.3627 76.5804 64.6692 76.652 65.0409 76.7224C64.5547 76.9818 64.1339 77.2072 63.7124 77.431C62.8781 77.874 62.2412 78.5876 61.4495 79.0866C60.1321 79.9171 58.9361 80.8965 57.8256 81.9837C57.6351 82.1702 57.3963 82.2109 57.19 82.0962C56.9702 81.9741 56.8885 81.7629 56.9552 81.4709C57.3502 79.7401 58.2053 78.2597 59.4197 76.9923C59.9556 76.4331 60.5943 75.9733 61.1774 75.458C61.9838 74.7455 62.9065 74.1908 63.7592 73.5413C63.8645 73.4611 63.9652 73.3692 64.1504 73.3716Z" fill="#FCFAE9"/>
<path d="M136.735 62.8061C137.415 62.6066 137.941 62.2464 138.346 61.7019C138.575 61.3945 138.629 61.0638 138.546 60.7063C138.439 60.2472 138.082 59.9374 137.83 59.5666C137.675 59.3393 137.475 59.143 137.258 58.8887C137.658 58.9209 137.896 59.1734 138.166 59.332C138.523 59.5417 138.848 59.8108 139.168 60.0753C139.701 60.5145 140.226 60.9648 140.745 61.4204C141.423 62.0153 141.806 62.8033 142.144 63.6158C142.41 64.2556 142.601 64.9189 142.717 65.6025C142.733 65.7008 142.737 65.8018 142.739 65.9017C142.741 66.0338 142.754 66.1978 142.633 66.2625C142.504 66.3309 142.384 66.2225 142.278 66.1341C140.955 65.0227 139.447 64.2029 137.939 63.384C137.561 63.1786 137.189 62.9555 136.735 62.8061Z" fill="#FCFAE9"/>
<path d="M47.8669 62.8178C47.0733 63.161 46.3546 63.5368 45.6515 63.9452C44.4662 64.6339 43.2764 65.3141 42.2359 66.2206C42.0695 66.3656 41.9176 66.2826 41.8885 66.0371C41.8634 65.8254 41.8968 65.6153 41.941 65.4073C42.2081 64.1542 42.6352 62.9673 43.4078 61.9292C43.7899 61.4158 44.3227 61.0582 44.7964 60.6401C45.3962 60.1106 45.991 59.5736 46.6908 59.1744C46.8061 59.1088 46.956 58.931 47.057 59.0541C47.1412 59.1569 46.9787 59.339 46.8911 59.4419C46.5587 59.8319 46.2741 60.2447 46.0809 60.7221C45.9475 61.0516 46.0556 61.3515 46.218 61.6107C46.5981 62.2173 47.1796 62.5815 47.8669 62.8178Z" fill="#FCFAE9"/>
<path d="M90.4348 6.18643C90.5299 6.02934 90.5281 5.77959 90.8064 5.79728C90.821 6.2015 90.5336 6.39835 90.2298 6.51607C89.8733 6.65422 89.4835 6.72188 89.1523 6.4103C89.2717 6.40873 89.3916 6.39329 89.5075 6.44251C89.5463 6.45901 89.6197 6.47952 89.6301 6.4648C89.7914 6.23732 90.0958 6.36831 90.2779 6.20093C90.293 6.32493 90.3875 6.27717 90.4435 6.26295C90.5202 6.24355 90.4563 6.21111 90.4348 6.18643Z" fill="#FCFAE9"/>
<path d="M80.9891 30.0718C81.118 30.2472 81.1605 30.4067 80.8927 30.4857C80.9937 30.6526 81.0764 30.4823 81.1859 30.514C81.1055 30.6587 81.1235 30.8075 81.1537 30.9603C81.2062 31.2263 81.0903 31.3462 80.8202 31.3161C80.6867 31.2359 80.7217 31.148 80.8082 31.0576C80.8632 31.0414 80.9593 31.0729 80.9555 30.9836C80.9519 30.8972 80.8594 30.9299 80.8023 30.9191C80.8663 30.6371 80.6779 30.2993 80.9891 30.0718Z" fill="#FCFAE9"/>
<path d="M76.5691 12.8238C76.572 12.9403 76.4434 13.0177 76.4202 12.9427C76.309 12.584 75.9361 12.762 75.7417 12.5786C75.6677 12.5089 75.6128 12.4373 75.5605 12.3566C76.0122 12.2631 76.315 12.4909 76.5691 12.8238Z" fill="#FCFAE9"/>
<path d="M103.653 32.6694C103.499 32.4966 103.321 32.3356 103.678 32.1687C103.731 32.1434 103.712 31.9167 103.598 31.809C103.645 31.7921 103.728 31.7616 103.81 31.731C103.887 32.0656 103.845 32.38 103.653 32.6694Z" fill="#FCFAE9"/>
<path d="M77.1782 13.0369C77.0213 12.9714 76.736 13.1995 76.7109 12.8325C76.8902 12.8471 77.0481 12.9103 77.1782 13.0369Z" fill="#FCFAE9"/>
<path d="M80.8027 30.918C80.8598 30.9288 80.9525 30.8961 80.9561 30.9825C80.9598 31.0718 80.8636 31.0403 80.8087 31.0565C80.8067 31.0103 80.8047 30.9642 80.8027 30.918Z" fill="#FCFAE9"/>
<path d="M60.2188 56.9058C60.2334 56.9119 60.248 56.9179 60.2627 56.9239C60.2592 56.9177 60.2571 56.9081 60.252 56.9062C60.2434 56.903 60.233 56.9048 60.2233 56.9047L60.2188 56.9058Z" fill="#FCFAE9"/>
<path d="M81.9946 36.8188C81.9914 36.8215 81.9882 36.8243 81.9844 36.8275L81.9946 36.8188Z" fill="#FCFAE9"/>
<path d="M126.28 27.8403C126.284 27.825 126.287 27.8097 126.291 27.7944C126.341 27.8314 126.293 27.8276 126.273 27.8355L126.28 27.8403Z" fill="#FCFAE9"/>
<path d="M93.3841 74.5148C93.3634 74.5023 93.34 74.5931 93.3211 74.5132L93.3154 74.5193C93.3392 74.5194 93.3629 74.5195 93.3866 74.5196L93.3841 74.5148Z" fill="#FCFAE9"/>
<path d="M103.405 31.9705C103.397 31.9886 103.393 32.0166 103.38 32.0218C103.367 32.027 103.345 32.0089 103.327 32.001C103.334 31.9829 103.338 31.9548 103.352 31.9496C103.364 31.9445 103.387 31.9625 103.405 31.9705Z" fill="#FCFAE9"/>
<path d="M100.416 35.0697C100.402 35.0706 100.386 35.0715 100.372 35.0725C100.376 35.0598 100.379 35.0473 100.383 35.0347L100.416 35.0697Z" fill="#FCFAE9"/>
<path d="M93.3869 74.5172C93.3631 74.5171 93.3394 74.517 93.3156 74.5169C93.3136 74.4803 93.3318 74.461 93.3667 74.4708C93.377 74.4738 93.3804 74.5011 93.3869 74.5172Z" fill="#FCFAE9"/>
<path d="M108.3 12.7367C108.295 12.7415 108.287 12.7531 108.279 12.7528C108.271 12.7525 108.264 12.7404 108.257 12.7334C108.265 12.727 108.273 12.7152 108.28 12.7158C108.288 12.7165 108.294 12.7294 108.3 12.7367Z" fill="#FCFAE9"/>
<path d="M90.4344 6.18604C90.4558 6.21071 90.5197 6.24316 90.4431 6.26256C90.3869 6.27677 90.2925 6.32454 90.2773 6.20054C90.3296 6.1957 90.382 6.19086 90.4344 6.18604Z" fill="#FCFAE9"/>
<path d="M64.1456 28.478C64.1164 28.4798 64.0706 28.4937 64.0608 28.4808C64.0333 28.4441 64.0751 28.4372 64.1001 28.4263C64.1153 28.4435 64.1305 28.4608 64.1456 28.478Z" fill="#FCFAE9"/>
<path d="M73.9014 74.6257C73.9039 74.6207 73.9077 74.6134 73.9116 74.606C73.9232 74.6134 73.9348 74.6207 73.9465 74.6281C73.9386 74.6356 73.9309 74.643 73.9232 74.6504C73.9162 74.6424 73.909 74.6344 73.9014 74.6257Z" fill="#FCFAE9"/>
<path d="M111.01 69.3015C111.012 69.3421 110.988 69.3593 110.952 69.3545C110.938 69.3526 110.926 69.3346 110.913 69.324C110.942 69.3131 110.971 69.3023 110.999 69.2915L111.01 69.3015Z" fill="#FCFAE9"/>
<path d="M126.848 67.6036C126.841 67.6 126.833 67.5965 126.826 67.593C126.834 67.5835 126.842 67.574 126.849 67.5645C126.856 67.5712 126.863 67.578 126.869 67.5848C126.862 67.5911 126.855 67.5973 126.848 67.6036Z" fill="#FCFAE9"/>
<path d="M130.537 61.1577C130.563 61.1306 130.588 61.1201 130.615 61.1547C130.615 61.1547 130.587 61.1795 130.573 61.1927C130.561 61.1815 130.548 61.1698 130.537 61.1577Z" fill="#FCFAE9"/>
</svg>
