<svg width="28" height="28" viewBox="0 0 28 28" fill="none" xmlns="http://www.w3.org/2000/svg">
<path d="M28 9.70854C27.6905 10.0181 27.3903 10.2995 27.0995 10.5528C26.8087 10.806 26.4992 11.0265 26.1709 11.2141C25.8425 11.4017 25.5002 11.5377 25.1437 11.6221C24.7873 11.7065 24.3698 11.7581 23.8915 11.7769C23.5725 11.7769 23.2677 11.7487 22.9769 11.6925L17.6442 17.0251C17.7662 17.3816 17.8553 17.7474 17.9116 18.1226C17.9678 18.4978 17.996 18.873 17.996 19.2482C17.996 19.858 17.935 20.4114 17.8131 20.9085C17.6911 21.4057 17.5176 21.8747 17.2925 22.3156C17.0673 22.7564 16.7859 23.1739 16.4482 23.5678C16.1106 23.9618 15.74 24.3698 15.3367 24.792L9.90553 19.3608L1.91357 27.3668L0 28L0.633166 26.0864L8.6392 18.0945L3.20804 12.6633C3.62077 12.2506 4.02412 11.8801 4.41809 11.5518C4.81206 11.2235 5.22948 10.9467 5.67035 10.7216C6.11122 10.4965 6.58023 10.3183 7.07739 10.1869C7.57454 10.0556 8.13266 9.99464 8.75176 10.004C9.12697 10.004 9.50218 10.0322 9.87739 10.0884C10.2526 10.1447 10.6184 10.2338 10.9749 10.3558L16.3075 5.02312C16.2513 4.73233 16.2231 4.42747 16.2231 4.10854C16.2231 3.64891 16.27 3.23618 16.3638 2.87035C16.4576 2.50452 16.5983 2.15745 16.7859 1.82915C16.9735 1.50084 17.1893 1.19598 17.4332 0.914573C17.6771 0.633166 17.9631 0.328308 18.2915 0L28 9.70854Z" fill="white"/>
</svg>
