<svg width="28" height="28" viewBox="0 0 28 28" fill="none" xmlns="http://www.w3.org/2000/svg">
<path d="M23.1669 10.7107L22.6454 10.6097L22.2698 10.9854L16.9371 16.318L16.4962 16.7589L16.6981 17.3488C16.8003 17.6478 16.8752 17.9549 16.9226 18.271C16.9716 18.5976 16.996 18.9232 16.996 19.2482C16.996 19.7925 16.9415 20.2643 16.8419 20.6703C16.7377 21.095 16.5907 21.4911 16.4019 21.8608C16.2143 22.2281 15.9778 22.5801 15.689 22.917C15.5671 23.0592 15.4405 23.2036 15.3092 23.3503L10.6126 18.6537L10.054 18.0951L9.90491 17.946L9.3463 17.3874L4.64055 12.6816C4.78163 12.555 4.92088 12.4345 5.05827 12.32C5.39723 12.0375 5.75275 11.8024 6.12513 11.6122C6.50003 11.4208 6.90195 11.2676 7.33278 11.1538C7.72587 11.0499 8.19084 10.9956 8.73661 11.0039L8.74418 11.004H8.75176C9.07676 11.004 9.40239 11.0284 9.72905 11.0774C10.0451 11.1248 10.3522 11.1997 10.6512 11.3019L11.2411 11.5038L11.682 11.0629L17.0146 5.73022L17.3903 5.35461L17.2893 4.83309C17.246 4.6095 17.2231 4.36853 17.2231 4.10854C17.2231 3.71528 17.2634 3.38811 17.3325 3.11873C17.404 2.83971 17.5109 2.57597 17.6542 2.32529C17.81 2.05257 17.9882 1.80101 18.1889 1.5695C18.2278 1.5246 18.268 1.47888 18.3096 1.43232L26.5667 9.68943C26.5251 9.72652 26.4838 9.76293 26.4427 9.79868C26.2006 10.0096 25.9447 10.1915 25.6747 10.3458C25.4268 10.4875 25.1736 10.5874 24.9132 10.649C24.6396 10.7138 24.2955 10.7593 23.8723 10.7768C23.6196 10.7757 23.385 10.7529 23.1669 10.7107Z" stroke="white" stroke-width="2"/>
</svg>
