<svg width="34" height="34" viewBox="0 0 34 34" fill="none" xmlns="http://www.w3.org/2000/svg">
<path d="M17 0C13.6377 0 10.3509 0.997032 7.55531 2.86502C4.75968 4.733 2.58074 7.38804 1.29406 10.4944C0.00736583 13.6007 -0.329291 17.0189 0.326658 20.3165C0.982606 23.6142 2.6017 26.6433 4.97919 29.0208C7.35668 31.3983 10.3858 33.0174 13.6835 33.6733C16.9811 34.3293 20.3993 33.9926 23.5056 32.7059C26.612 31.4193 29.267 29.2403 31.135 26.4447C33.003 23.6491 34 20.3623 34 17C34 14.7675 33.5603 12.5569 32.706 10.4944C31.8516 8.43184 30.5994 6.55778 29.0208 4.97918C27.4422 3.40059 25.5682 2.14838 23.5056 1.29405C21.4431 0.439718 19.2325 0 17 0ZM13.6 24.65V9.35L23.8 17L13.6 24.65Z" fill="white"/>
</svg>
