<svg width="100" height="80" viewBox="0 0 100 80" fill="none" xmlns="http://www.w3.org/2000/svg">
<path d="M68.8 23.8128C75.0651 32.0362 75.0651 47.9649 68.8 56.1882M82.9 7.62511C101.644 25.2373 101.756 54.8794 82.9 72.376M3 53.6861V26.3103C3 23.6555 5.1056 21.5003 7.7 21.5003H24.5542C25.1762 21.4981 25.7913 21.372 26.3624 21.1296C26.9334 20.8871 27.4487 20.5333 27.8771 20.0897L41.9771 4.41995C44.9381 1.3859 50 3.53661 50 7.82395V72.1771C50 76.4969 44.877 78.6291 41.9348 75.5349L27.8818 59.953C27.4522 59.4967 26.9317 59.1322 26.3527 58.8824C25.7738 58.6326 25.1488 58.5026 24.5166 58.5008H7.7C5.1056 58.5008 3 56.3455 3 53.6861Z" stroke="#482BEB" stroke-width="5" stroke-linecap="round" stroke-linejoin="round"/>
</svg>
