<svg width="84" height="68" viewBox="0 0 84 68" fill="none" xmlns="http://www.w3.org/2000/svg">
<path d="M57.6 20.4378C62.7987 27.3276 62.7987 40.6733 57.6 47.5631M69.3 6.8751C84.8532 21.6313 84.9468 46.4665 69.3 61.1258M3 45.4667V22.5303C3 20.306 4.7472 18.5003 6.9 18.5003H20.8854C21.4015 18.4984 21.9119 18.3928 22.3858 18.1897C22.8596 17.9865 23.2872 17.6901 23.6427 17.3184L35.3427 4.18969C37.7997 1.64766 42 3.44956 42 7.04173V60.9592C42 64.5785 37.749 66.3649 35.3076 63.7725L23.6466 50.7174C23.2901 50.3351 22.8582 50.0297 22.3778 49.8204C21.8974 49.6111 21.3788 49.5022 20.8542 49.5007H6.9C4.7472 49.5007 3 47.6949 3 45.4667Z" stroke="#FF552E" stroke-width="5" stroke-linecap="round" stroke-linejoin="round"/>
</svg>
